<svg width="171" height="44" viewBox="0 0 171 44" fill="none" xmlns="http://www.w3.org/2000/svg">
<path fill-rule="evenodd" clip-rule="evenodd" d="M1.78345 26.3066C4.16195 28.6845 8.01842 28.6845 10.3969 26.3066C12.7748 23.9286 12.7748 20.0715 10.3969 17.6935C8.01842 15.3156 4.16195 15.3156 1.78345 17.6935C-0.594482 20.0715 -0.594482 23.9286 1.78345 26.3066ZM26.3063 33.6036C23.9283 31.2257 20.0712 31.2257 17.6933 33.6036C15.3159 35.9816 15.3159 39.8385 17.6933 42.2165C20.0718 44.5945 23.9283 44.5945 26.3068 42.2165C28.6847 39.838 28.6847 35.9816 26.3063 33.6036ZM33.6031 17.6935C31.2251 20.0715 31.2251 23.9286 33.6031 26.3066C35.9816 28.6845 39.8382 28.6845 42.216 26.3066C44.5947 23.9286 44.5947 20.0715 42.216 17.6935C39.8387 15.3156 35.9816 15.3156 33.6031 17.6935ZM17.6933 1.78354C15.3159 4.16149 15.3159 8.01801 17.6933 10.3965C20.0718 12.7745 23.9283 12.7745 26.3068 10.3965C28.6781 8.02414 28.6847 4.18042 26.3246 1.80136C26.3184 1.79524 26.3129 1.7891 26.3063 1.78298C23.9283 -0.594421 20.0712 -0.594417 17.6933 1.78354ZM10.3969 1.78354C9.62951 1.01669 8.70951 0.496557 7.73385 0.22479C7.71993 0.220892 7.70488 0.216979 7.69042 0.213081C7.18976 0.0783123 6.66349 0.00535883 6.12108 0.004244H6.10716C2.75355 0.004244 0.033693 2.72414 0.0258966 6.08112C0.0258966 6.08557 0.0258966 6.09002 0.0258966 6.09504C0.0258966 8.89623 1.91488 11.2564 4.48661 11.9664C5.0023 12.109 5.54582 12.1853 6.10716 12.1853C7.2059 12.1853 8.21389 12.2811 9.13053 12.4715C12.6974 13.2128 14.8777 15.3908 15.6228 18.9583C15.791 19.7635 15.8856 20.6395 15.9074 21.5851C15.8984 21.7171 15.8946 21.8508 15.8946 21.985C15.8946 23.0943 15.7971 24.1112 15.6039 25.0353C14.8582 28.5926 12.683 30.7679 9.12608 31.5136C8.2022 31.7074 7.18531 31.8043 6.07542 31.8043C4.49496 31.8043 3.04815 32.4164 1.96221 33.4153C1.90485 33.4788 1.84471 33.5418 1.78345 33.6029C-0.492571 35.879 -0.590028 39.51 1.49108 41.9023C1.58464 42.0099 1.68209 42.1147 1.78345 42.216C2.77694 43.2028 4.10848 43.8495 5.58925 43.9664L6.32101 43.9797C9.56993 43.8509 12.1662 41.1751 12.1662 37.8944C12.1662 37.7747 12.1673 37.6551 12.1695 37.5369C12.1879 36.5729 12.2831 35.6818 12.4529 34.8633C13.1958 31.288 15.3789 29.1055 18.9541 28.362C19.7577 28.1949 20.6326 28.1009 21.5771 28.0802C21.5581 28.0787 21.5387 28.0774 21.5192 28.0752L21.6083 28.0769L21.6339 28.0792L21.6651 28.0787C21.7659 28.0769 21.8672 28.0757 21.9697 28.0757L21.6684 28.0787L21.9987 28.0846H22.0009L22.3935 28.0774L22.4787 28.0757C22.403 28.0819 22.3267 28.0863 22.2509 28.0891L22.1646 28.0876C22.1134 28.0891 22.0621 28.0898 22.0115 28.0903C23.113 28.0903 24.1232 28.186 25.0414 28.3783C28.6066 29.1211 30.7846 31.3008 31.5282 34.87C31.7202 35.791 31.8166 36.8045 31.8166 37.9095C31.8166 39.5417 32.4576 41.0243 33.5017 42.1174C33.5364 42.1498 33.5702 42.1827 33.6038 42.216C34.7276 43.3393 36.181 43.9323 37.6528 43.9948C37.6545 43.9941 37.6568 43.9948 37.6585 43.9948L38.3835 43.9815C39.8615 43.8638 41.1914 43.2174 42.1826 42.2311C43.3293 41.0826 43.9792 39.5367 43.9792 37.9095C43.9792 34.6048 41.3073 31.8876 38.0221 31.8204C37.9803 31.8192 37.9391 31.8192 37.8973 31.8192C36.7963 31.8192 35.7868 31.7235 34.869 31.5319C31.3032 30.7889 29.1252 28.6087 28.3812 25.0397C28.1985 24.163 28.1029 23.203 28.0937 22.1599C28.0949 22.1081 28.0954 22.0563 28.0954 22.004C28.0954 20.8974 28.1918 19.8821 28.3856 18.9605C29.1302 15.3975 31.3077 13.2194 34.8707 12.4743C35.7934 12.2816 36.8082 12.1847 37.9146 12.1847C39.5268 12.1847 40.9926 11.5582 42.082 10.5352C42.126 10.4884 42.1705 10.4422 42.216 10.3965C44.5947 8.01801 44.5947 4.16094 42.216 1.78354C42.2115 1.77852 42.2066 1.77407 42.2026 1.76962C42.191 1.75736 42.1794 1.74512 42.1665 1.73398C41.069 0.663621 39.5686 0.004244 37.9146 0.004244H37.9008C34.5437 0.0120404 31.8246 2.73638 31.8246 6.09447C31.8246 6.16297 31.8238 6.23203 31.8233 6.29998C31.8122 7.32466 31.7165 8.26918 31.5366 9.13237C30.7925 12.7015 28.6118 14.8818 25.0426 15.6258C24.2362 15.7934 23.3591 15.8881 22.4113 15.9093C22.3456 15.9109 22.2799 15.912 22.2142 15.9126C22.2091 15.9126 22.2047 15.9126 22.1997 15.912C22.1418 15.9109 22.0839 15.9093 22.0254 15.9093C22.0209 15.9093 22.0165 15.9093 22.0115 15.9093C21.9719 15.9093 21.9318 15.9098 21.8923 15.9109C21.8633 15.9115 21.8333 15.912 21.8037 15.9131C21.8026 15.9131 21.8015 15.9131 21.8004 15.9131C21.7219 15.9126 21.6439 15.9109 21.5659 15.9093C20.6276 15.8875 19.7577 15.7923 18.958 15.6252C15.3945 14.8801 13.2181 12.6993 12.4758 9.12847C12.2848 8.20847 12.1884 7.19714 12.1884 6.09447C12.1884 4.46387 11.5491 2.9831 10.506 1.88991C10.4693 1.85538 10.4331 1.81973 10.3969 1.78354Z" fill="#6A47ED"/>
<path d="M56.592 36V9.18H65.34C68.172 9.18 70.632 9.756 72.72 10.908C74.832 12.036 76.464 13.608 77.616 15.624C78.768 17.616 79.344 19.932 79.344 22.572C79.344 25.188 78.768 27.516 77.616 29.556C76.464 31.572 74.832 33.156 72.72 34.308C70.632 35.436 68.172 36 65.34 36H56.592ZM61.488 31.68H65.448C67.272 31.68 68.844 31.308 70.164 30.564C71.508 29.796 72.552 28.74 73.296 27.396C74.04 26.028 74.412 24.42 74.412 22.572C74.412 20.7 74.04 19.092 73.296 17.748C72.552 16.404 71.508 15.36 70.164 14.616C68.844 13.872 67.272 13.5 65.448 13.5H61.488V31.68ZM82.8444 36V16.416H87.5604V36H82.8444ZM82.8444 14.22V9.18H87.5604V14.22H82.8444ZM101.419 43.92C99.9548 43.92 98.5988 43.68 97.3508 43.2C96.1028 42.72 95.0228 42.048 94.1108 41.184C93.2228 40.344 92.5748 39.348 92.1668 38.196L96.5588 36.54C96.8468 37.452 97.4108 38.184 98.2508 38.736C99.1148 39.312 100.171 39.6 101.419 39.6C102.379 39.6 103.219 39.42 103.939 39.06C104.683 38.7 105.259 38.172 105.667 37.476C106.075 36.804 106.279 35.988 106.279 35.028V30.564L107.179 31.644C106.507 32.82 105.607 33.708 104.479 34.308C103.351 34.908 102.067 35.208 100.627 35.208C98.8028 35.208 97.1708 34.788 95.7308 33.948C94.2908 33.108 93.1628 31.956 92.3468 30.492C91.5308 29.028 91.1228 27.384 91.1228 25.56C91.1228 23.712 91.5308 22.068 92.3468 20.628C93.1628 19.188 94.2788 18.06 95.6948 17.244C97.1108 16.404 98.7188 15.984 100.519 15.984C101.983 15.984 103.267 16.296 104.371 16.92C105.499 17.52 106.435 18.396 107.179 19.548L106.531 20.736V16.416H110.995V35.028C110.995 36.732 110.575 38.256 109.735 39.6C108.919 40.944 107.791 42 106.351 42.768C104.935 43.536 103.291 43.92 101.419 43.92ZM101.203 30.852C102.211 30.852 103.087 30.636 103.831 30.204C104.599 29.748 105.199 29.124 105.631 28.332C106.063 27.54 106.279 26.628 106.279 25.596C106.279 24.588 106.051 23.688 105.595 22.896C105.163 22.08 104.563 21.444 103.795 20.988C103.051 20.532 102.187 20.304 101.203 20.304C100.219 20.304 99.3308 20.532 98.5388 20.988C97.7468 21.444 97.1228 22.08 96.6668 22.896C96.2348 23.688 96.0188 24.588 96.0188 25.596C96.0188 26.604 96.2348 27.504 96.6668 28.296C97.1228 29.088 97.7348 29.712 98.5028 30.168C99.2948 30.624 100.195 30.852 101.203 30.852ZM124.327 36.216C122.119 36.216 120.403 35.616 119.179 34.416C117.979 33.192 117.379 31.476 117.379 29.268V20.628H113.995V16.416H114.355C115.315 16.416 116.059 16.164 116.587 15.66C117.115 15.156 117.379 14.424 117.379 13.464V11.952H122.095V16.416H126.595V20.628H122.095V29.016C122.095 29.664 122.203 30.216 122.419 30.672C122.659 31.128 123.019 31.476 123.499 31.716C124.003 31.956 124.639 32.076 125.407 32.076C125.575 32.076 125.767 32.064 125.983 32.04C126.223 32.016 126.451 31.992 126.667 31.968V36C126.331 36.048 125.947 36.096 125.515 36.144C125.083 36.192 124.687 36.216 124.327 36.216ZM139.382 36.432C137.366 36.432 135.602 35.976 134.09 35.064C132.578 34.152 131.402 32.916 130.562 31.356C129.722 29.796 129.302 28.068 129.302 26.172C129.302 24.204 129.722 22.464 130.562 20.952C131.426 19.416 132.59 18.204 134.054 17.316C135.542 16.428 137.198 15.984 139.022 15.984C140.558 15.984 141.902 16.236 143.054 16.74C144.23 17.244 145.226 17.94 146.042 18.828C146.858 19.716 147.482 20.736 147.914 21.888C148.346 23.016 148.562 24.24 148.562 25.56C148.562 25.896 148.538 26.244 148.49 26.604C148.466 26.964 148.406 27.276 148.31 27.54H133.19V23.94H145.646L143.414 25.632C143.63 24.528 143.57 23.544 143.234 22.68C142.922 21.816 142.394 21.132 141.65 20.628C140.93 20.124 140.054 19.872 139.022 19.872C138.038 19.872 137.162 20.124 136.394 20.628C135.626 21.108 135.038 21.828 134.63 22.788C134.246 23.724 134.102 24.864 134.198 26.208C134.102 27.408 134.258 28.476 134.666 29.412C135.098 30.324 135.722 31.032 136.538 31.536C137.378 32.04 138.338 32.292 139.418 32.292C140.498 32.292 141.41 32.064 142.154 31.608C142.922 31.152 143.522 30.54 143.954 29.772L147.77 31.644C147.386 32.58 146.786 33.408 145.97 34.128C145.154 34.848 144.182 35.412 143.054 35.82C141.95 36.228 140.726 36.432 139.382 36.432ZM152.137 36V8.748H156.853V26.604L155.053 26.064L164.269 16.416H170.137L162.901 24.3L170.281 36H164.881L158.473 25.848L161.281 25.272L155.377 31.608L156.853 28.728V36H152.137Z" fill="#17012C"/>
</svg>
