<svg width="40" height="40" viewBox="0 0 40 40" fill="none" xmlns="http://www.w3.org/2000/svg">
<path d="M20 30.625C19.0111 30.625 18.0444 30.3318 17.2221 29.7824C16.3999 29.2329 15.759 28.452 15.3806 27.5384C15.0022 26.6248 14.9031 25.6195 15.0961 24.6496C15.289 23.6796 15.7652 22.7887 16.4645 22.0895C17.1637 21.3902 18.0546 20.914 19.0245 20.7211C19.9945 20.5281 20.9998 20.6272 21.9134 21.0056C22.827 21.384 23.6079 22.0249 24.1573 22.8472C24.7068 23.6694 25 24.6361 25 25.625C24.9985 26.9506 24.4712 28.2215 23.5339 29.1589C22.5965 30.0963 21.3256 30.6235 20 30.625ZM20 21.875C19.2583 21.875 18.5333 22.0949 17.9166 22.507C17.2999 22.919 16.8193 23.5047 16.5355 24.1899C16.2516 24.8752 16.1774 25.6292 16.3221 26.3566C16.4667 27.084 16.8239 27.7522 17.3483 28.2767C17.8728 28.8011 18.541 29.1583 19.2684 29.3029C19.9958 29.4476 20.7498 29.3734 21.4351 29.0896C22.1203 28.8057 22.706 28.3251 23.118 27.7084C23.5301 27.0917 23.75 26.3667 23.75 25.625C23.749 24.6307 23.3536 23.6775 22.6506 22.9744C21.9475 22.2714 20.9943 21.876 20 21.875ZM27.5 38.75C27.3342 38.75 27.1753 38.6842 27.0581 38.5669C26.9408 38.4497 26.875 38.2908 26.875 38.125V34.375C26.875 33.7388 24.4481 32.5 20 32.5C15.5519 32.5 13.125 33.7388 13.125 34.375V38.125C13.125 38.2908 13.0592 38.4497 12.9419 38.5669C12.8247 38.6842 12.6658 38.75 12.5 38.75C12.3342 38.75 12.1753 38.6842 12.0581 38.5669C11.9408 38.4497 11.875 38.2908 11.875 38.125V34.375C11.875 32.3231 15.9625 31.25 20 31.25C24.0375 31.25 28.125 32.3231 28.125 34.375V38.125C28.125 38.2908 28.0592 38.4497 27.9419 38.5669C27.8247 38.6842 27.6658 38.75 27.5 38.75ZM30.625 27.5C29.6361 27.5 28.6694 27.2068 27.8471 26.6574C27.0249 26.1079 26.384 25.327 26.0056 24.4134C25.6272 23.4998 25.5281 22.4945 25.7211 21.5246C25.914 20.5546 26.3902 19.6637 27.0895 18.9645C27.7887 18.2652 28.6796 17.789 29.6495 17.5961C30.6195 17.4031 31.6248 17.5022 32.5384 17.8806C33.452 18.259 34.2329 18.8999 34.7823 19.7222C35.3318 20.5444 35.625 21.5111 35.625 22.5C35.6235 23.8256 35.0962 25.0965 34.1589 26.0339C33.2215 26.9713 31.9506 27.4985 30.625 27.5ZM30.625 18.75C29.8833 18.75 29.1583 18.9699 28.5416 19.382C27.9249 19.794 27.4443 20.3797 27.1605 21.0649C26.8766 21.7502 26.8024 22.5042 26.9471 23.2316C27.0917 23.959 27.4489 24.6272 27.9733 25.1517C28.4978 25.6761 29.166 26.0333 29.8934 26.1779C30.6208 26.3226 31.3748 26.2484 32.0601 25.9646C32.7453 25.6807 33.331 25.2001 33.743 24.5834C34.1551 23.9667 34.375 23.2417 34.375 22.5C34.374 21.5057 33.9786 20.5525 33.2756 19.8494C32.5725 19.1464 31.6193 18.751 30.625 18.75Z" fill="#6A47ED"/>
<path d="M38.125 35.6251C37.9592 35.6251 37.8003 35.5593 37.6831 35.4421C37.5658 35.3249 37.5 35.1659 37.5 35.0001V31.2501C37.5 30.6139 35.0731 29.3751 30.625 29.3751C28.0625 29.3751 25.6875 29.822 24.4375 30.5414C24.3664 30.5831 24.2877 30.6103 24.2061 30.6214C24.1244 30.6326 24.0413 30.6275 23.9617 30.6064C23.882 30.5854 23.8072 30.5488 23.7418 30.4987C23.6763 30.4486 23.6214 30.3861 23.5801 30.3147C23.5389 30.2433 23.5122 30.1645 23.5016 30.0828C23.491 30.001 23.4966 29.918 23.5182 29.8385C23.5398 29.7589 23.577 29.6844 23.6275 29.6193C23.678 29.5541 23.7408 29.4996 23.8125 29.4589C25.2656 28.6251 27.8125 28.1251 30.625 28.1251C34.6625 28.1251 38.75 29.1983 38.75 31.2501V35.0001C38.75 35.1659 38.6842 35.3249 38.5669 35.4421C38.4497 35.5593 38.2908 35.6251 38.125 35.6251ZM9.375 27.5001C8.38609 27.5001 7.41939 27.2069 6.59715 26.6575C5.7749 26.1081 5.13404 25.3272 4.7556 24.4136C4.37716 23.4999 4.27815 22.4946 4.47107 21.5247C4.664 20.5548 5.1402 19.6639 5.83947 18.9646C6.53873 18.2653 7.42964 17.7891 8.39955 17.5962C9.36945 17.4033 10.3748 17.5023 11.2884 17.8807C12.202 18.2592 12.9829 18.9 13.5323 19.7223C14.0818 20.5445 14.375 21.5112 14.375 22.5001C14.3735 23.8258 13.8462 25.0967 12.9089 26.034C11.9715 26.9714 10.7006 27.4986 9.375 27.5001ZM9.375 18.7501C8.63332 18.7501 7.9083 18.9701 7.29161 19.3821C6.67493 19.7942 6.19428 20.3799 5.91045 21.0651C5.62662 21.7503 5.55236 22.5043 5.69706 23.2317C5.84175 23.9592 6.1989 24.6273 6.72335 25.1518C7.2478 25.6762 7.91598 26.0334 8.64341 26.1781C9.37084 26.3228 10.1248 26.2485 10.8101 25.9647C11.4953 25.6809 12.081 25.2002 12.493 24.5835C12.9051 23.9668 13.125 23.2418 13.125 22.5001C13.124 21.5059 12.7286 20.5526 12.0256 19.8496C11.3225 19.1465 10.3693 18.7511 9.375 18.7501ZM1.875 35.6251C1.70924 35.6251 1.55027 35.5593 1.43306 35.4421C1.31585 35.3249 1.25 35.1659 1.25 35.0001V31.2501C1.25 29.1983 5.3375 28.1251 9.375 28.1251C12.1875 28.1251 14.7344 28.6251 16.1837 29.4589C16.2554 29.4996 16.3183 29.5541 16.3688 29.6193C16.4193 29.6844 16.4564 29.7589 16.478 29.8385C16.4996 29.918 16.5053 30.001 16.4946 30.0828C16.484 30.1645 16.4573 30.2433 16.4161 30.3147C16.3749 30.3861 16.32 30.4486 16.2545 30.4987C16.189 30.5488 16.1143 30.5854 16.0346 30.6064C15.9549 30.6275 15.8718 30.6326 15.7902 30.6214C15.7085 30.6103 15.6299 30.5831 15.5587 30.5414C14.3125 29.822 11.9406 29.3751 9.375 29.3751C4.92687 29.3751 2.5 30.6139 2.5 31.2501V35.0001C2.5 35.1659 2.43415 35.3249 2.31694 35.4421C2.19973 35.5593 2.04076 35.6251 1.875 35.6251ZM10.0556 16.8751C9.92868 16.8751 9.80476 16.8363 9.70037 16.7641C9.59598 16.6918 9.51606 16.5895 9.47125 16.4708C8.41818 13.6784 8.51751 10.582 9.74739 7.86284C10.9773 5.14368 13.237 3.02446 16.0294 1.97139C18.8218 0.91831 21.9181 1.01764 24.6373 2.24753C27.3565 3.47742 29.4757 5.73711 30.5288 8.52951C30.5592 8.6066 30.574 8.68896 30.5723 8.77182C30.5706 8.85468 30.5524 8.93637 30.5189 9.01215C30.4853 9.08792 30.437 9.15626 30.3768 9.21319C30.3165 9.27013 30.2456 9.31452 30.1681 9.34377C30.0905 9.37303 30.0079 9.38658 29.9251 9.38362C29.8423 9.38066 29.7609 9.36127 29.6856 9.32655C29.6104 9.29184 29.5428 9.24251 29.4868 9.18143C29.4308 9.12035 29.3875 9.04873 29.3594 8.97076C28.4233 6.4885 26.5395 4.47975 24.1224 3.38641C21.7053 2.29308 18.9529 2.20471 16.4706 3.14076C13.9884 4.07681 11.9796 5.96059 10.8863 8.3777C9.79294 10.7948 9.70458 13.5472 10.6406 16.0295C10.6696 16.1063 10.6832 16.1881 10.6806 16.2702C10.678 16.3523 10.6592 16.433 10.6254 16.5078C10.5915 16.5826 10.5433 16.6501 10.4834 16.7062C10.4235 16.7624 10.3531 16.8062 10.2762 16.8351C10.2057 16.8615 10.131 16.875 10.0556 16.8751Z" fill="#6A47ED"/>
<path d="M20 20C18.5166 20 17.0666 19.5601 15.8332 18.736C14.5999 17.9119 13.6386 16.7406 13.0709 15.3701C12.5032 13.9997 12.3547 12.4917 12.6441 11.0368C12.9335 9.58197 13.6478 8.2456 14.6967 7.1967C15.7456 6.14781 17.082 5.4335 18.5368 5.14411C19.9917 4.85472 21.4997 5.00325 22.8701 5.57091C24.2406 6.13856 25.4119 7.09986 26.236 8.33323C27.0601 9.5666 27.5 11.0166 27.5 12.5C27.4979 14.4885 26.707 16.3949 25.3009 17.8009C23.8949 19.207 21.9885 19.9979 20 20ZM20 6.25C18.7639 6.25 17.5555 6.61656 16.5277 7.30332C15.4999 7.99008 14.6988 8.96619 14.2258 10.1082C13.7527 11.2503 13.6289 12.5069 13.8701 13.7193C14.1113 14.9317 14.7065 16.0453 15.5806 16.9194C16.4547 17.7935 17.5683 18.3888 18.7807 18.6299C19.9931 18.8711 21.2497 18.7473 22.3918 18.2743C23.5338 17.8012 24.5099 17.0001 25.1967 15.9723C25.8834 14.9445 26.25 13.7361 26.25 12.5C26.2482 10.843 25.5891 9.2543 24.4174 8.0826C23.2457 6.91089 21.657 6.25182 20 6.25Z" fill="#6A47ED"/>
<path d="M20 16.25C19.2583 16.25 18.5333 16.0301 17.9166 15.618C17.2999 15.206 16.8193 14.6203 16.5355 13.9351C16.2516 13.2498 16.1774 12.4958 16.3221 11.7684C16.4668 11.041 16.8239 10.3728 17.3484 9.84835C17.8728 9.3239 18.541 8.96675 19.2684 8.82206C19.9958 8.67736 20.7498 8.75162 21.4351 9.03545C22.1203 9.31928 22.706 9.79993 23.118 10.4166C23.5301 11.0333 23.75 11.7583 23.75 12.5C23.749 13.4943 23.3536 14.4475 22.6506 15.1506C21.9475 15.8536 20.9943 16.249 20 16.25ZM20 10C19.5055 10 19.0222 10.1466 18.6111 10.4213C18.2 10.696 17.8795 11.0865 17.6903 11.5433C17.5011 12.0001 17.4516 12.5028 17.548 12.9877C17.6445 13.4727 17.8826 13.9181 18.2322 14.2678C18.5819 14.6174 19.0273 14.8555 19.5123 14.952C19.9972 15.0484 20.4999 14.9989 20.9567 14.8097C21.4135 14.6205 21.804 14.3 22.0787 13.8889C22.3534 13.4778 22.5 12.9945 22.5 12.5C22.5 11.837 22.2366 11.2011 21.7678 10.7322C21.2989 10.2634 20.663 10 20 10Z" fill="#6A47ED"/>
<path d="M36.25 15.625H31.0575C30.8961 15.6247 30.7412 15.562 30.625 15.45L28.2094 13.125H20C19.8342 13.125 19.6753 13.0592 19.5581 12.9419C19.4408 12.8247 19.375 12.6658 19.375 12.5C19.375 12.3342 19.4408 12.1753 19.5581 12.0581C19.6753 11.9408 19.8342 11.875 20 11.875H28.2094L30.625 9.55C30.7413 9.43788 30.8966 9.37516 31.0581 9.375H36.25C36.3746 9.375 36.4963 9.41223 36.5996 9.48193C36.7029 9.55162 36.783 9.6506 36.8296 9.76614C36.8762 9.88168 36.8873 10.0085 36.8613 10.1304C36.8353 10.2522 36.7735 10.3635 36.6838 10.45L34.555 12.5L36.6838 14.55C36.7735 14.6365 36.8353 14.7478 36.8613 14.8696C36.8873 14.9915 36.8762 15.1183 36.8296 15.2339C36.783 15.3494 36.7029 15.4484 36.5996 15.5181C36.4963 15.5878 36.3746 15.625 36.25 15.625ZM31.3125 14.375H34.7L33.4019 13.125H30.0119L31.3125 14.375ZM30.0144 11.875H33.4044L34.7025 10.625H31.3125L30.0144 11.875Z" fill="#6A47ED"/>
</svg>
