<svg width="40" height="40" viewBox="0 0 40 40" fill="none" xmlns="http://www.w3.org/2000/svg">
<path d="M5.57576 17.6358H1.57576C1.21212 17.6358 0.969696 17.8782 0.969696 18.2419V38.2419C0.969696 38.6055 1.21212 38.8479 1.57576 38.8479H5.57576C5.93939 38.8479 6.18182 38.6055 6.18182 38.2419V18.2419C6.18182 17.9388 5.87879 17.6358 5.57576 17.6358ZM4.9697 37.6358H2.18182V18.8479H4.9697V37.6358ZM13.8182 22.4843H9.81818C9.45455 22.4843 9.21212 22.7267 9.21212 23.0903V38.2419C9.21212 38.6055 9.45455 38.8479 9.81818 38.8479H13.8182C14.1818 38.8479 14.4242 38.6055 14.4242 38.2419V23.0903C14.4242 22.7873 14.1212 22.4843 13.8182 22.4843ZM13.2121 37.6358H10.4242V23.6964H13.2121V37.6358ZM22 27.3328H18C17.6364 27.3328 17.3939 27.5752 17.3939 27.9388V38.2419C17.3939 38.6055 17.6364 38.8479 18 38.8479H22C22.3636 38.8479 22.6061 38.6055 22.6061 38.2419V27.9388C22.6061 27.6358 22.3636 27.3328 22 27.3328ZM21.3939 37.6358H18.6061V28.5449H21.3939V37.6358ZM30.2424 30.9691H26.2424C25.8788 30.9691 25.6364 31.2116 25.6364 31.5752V38.2419C25.6364 38.6055 25.8788 38.8479 26.2424 38.8479H30.2424C30.6061 38.8479 30.8485 38.6055 30.8485 38.2419V31.5752C30.8485 31.2722 30.5455 30.9691 30.2424 30.9691ZM29.6364 37.6358H26.8485V32.1813H29.6364V37.6358ZM38.4242 34.6055H34.4242C34.0606 34.6055 33.8182 34.8479 33.8182 35.2116V38.2419C33.8182 38.6055 34.0606 38.8479 34.4242 38.8479H38.4242C38.7879 38.8479 39.0303 38.6055 39.0303 38.2419V35.2116C39.0303 34.9085 38.7879 34.6055 38.4242 34.6055ZM37.8182 37.6358H35.0303V35.8176H37.8182V37.6358ZM34.9697 13.2722H25.8788V4.18126C25.8788 3.81762 25.6364 3.5752 25.2727 3.5752C19.5758 3.5752 14.9697 8.18126 14.9697 13.8782C14.9697 19.5752 19.5758 24.1813 25.2727 24.1813C30.9697 24.1813 35.5758 19.5752 35.5758 13.8782C35.5758 13.5752 35.2727 13.2722 34.9697 13.2722ZM25.2727 22.9691C20.2424 22.9691 16.1818 18.9085 16.1818 13.8782C16.1818 9.09035 19.9394 5.09035 24.6667 4.78732V13.8782C24.6667 14.2419 24.9091 14.4843 25.2727 14.4843H34.3636C34 19.2116 30.0606 22.9691 25.2727 22.9691Z" fill="#384BFF"/>
<path d="M27.697 12.0605H37.3939C37.7576 12.0605 38 11.818 38 11.4544C38 5.75743 33.3939 1.15137 27.697 1.15137C27.3333 1.15137 27.0909 1.39379 27.0909 1.75743V11.4544C27.0909 11.818 27.3333 12.0605 27.697 12.0605ZM28.303 2.42409C32.8485 2.72712 36.4849 6.36349 36.7879 10.9089H28.303V2.42409Z" fill="#384BFF"/>
</svg>
