<svg width="40" height="40" viewBox="0 0 40 40" fill="none" xmlns="http://www.w3.org/2000/svg">
<path d="M28.125 20.7356V19.2644C28.1247 18.915 27.9858 18.58 27.7388 18.3329C27.4918 18.0858 27.1569 17.9467 26.8075 17.9463C26.7915 17.9473 26.7756 17.9435 26.7617 17.9354C26.7479 17.9272 26.7369 17.9151 26.73 17.9006C26.6039 17.4964 26.4411 17.1046 26.2438 16.73C26.2375 16.7144 26.2362 16.6974 26.24 16.681C26.2438 16.6647 26.2525 16.65 26.265 16.6388C26.5121 16.3916 26.6509 16.0564 26.6509 15.7069C26.6509 15.3574 26.5121 15.0222 26.265 14.775L25.225 13.735C25.1026 13.6126 24.9573 13.5154 24.7973 13.4492C24.6374 13.3829 24.4659 13.3488 24.2928 13.3488C24.1197 13.3488 23.9482 13.3829 23.7883 13.4492C23.6284 13.5154 23.483 13.6126 23.3606 13.735C23.3495 13.7471 23.3349 13.7556 23.3189 13.7594C23.3028 13.7632 23.286 13.7621 23.2706 13.7563C22.8963 13.5587 22.5047 13.3959 22.1006 13.27C22.0858 13.2632 22.0735 13.2521 22.0651 13.2382C22.0567 13.2243 22.0528 13.2081 22.0537 13.1919C22.0531 12.8426 21.914 12.5078 21.6669 12.261C21.4198 12.0141 21.0849 11.8753 20.7356 11.875H19.2644C19.0902 11.8757 18.9179 11.9107 18.7573 11.9781C18.5966 12.0455 18.4509 12.144 18.3285 12.2678C18.206 12.3917 18.1092 12.5385 18.0436 12.6999C17.978 12.8612 17.9449 13.0339 17.9463 13.2081C17.9469 13.2196 17.9444 13.231 17.939 13.2412C17.9336 13.2513 17.9255 13.2598 17.9156 13.2656C17.5055 13.3922 17.108 13.5564 16.7281 13.7563C16.7126 13.7624 16.6955 13.7636 16.6792 13.7598C16.6629 13.756 16.6481 13.7474 16.6369 13.735C16.3897 13.4879 16.0545 13.3491 15.705 13.3491C15.3555 13.3491 15.0203 13.4879 14.7731 13.735L13.735 14.775C13.4879 15.0223 13.3491 15.3576 13.3491 15.7072C13.3491 16.0568 13.4879 16.3921 13.735 16.6394C13.7473 16.6504 13.7559 16.665 13.7597 16.6811C13.7635 16.6971 13.7623 16.714 13.7563 16.7294C13.5587 17.1037 13.3959 17.4953 13.27 17.8994C13.2632 17.9142 13.2521 17.9265 13.2382 17.9349C13.2243 17.9433 13.2081 17.9472 13.1919 17.9463C12.8426 17.9469 12.5078 18.086 12.261 18.3331C12.0141 18.5802 11.8753 18.9151 11.875 19.2644V20.7356C11.8753 21.085 12.0142 21.42 12.2612 21.6671C12.5082 21.9142 12.8431 22.0533 13.1925 22.0537C13.2085 22.0527 13.2244 22.0565 13.2383 22.0646C13.2521 22.0728 13.2631 22.0849 13.27 22.0994C13.3961 22.5036 13.5589 22.8954 13.7563 23.27C13.7625 23.2856 13.7638 23.3026 13.76 23.319C13.7562 23.3353 13.7475 23.35 13.735 23.3612C13.4879 23.6084 13.3491 23.9436 13.3491 24.2931C13.3491 24.6426 13.4879 24.9778 13.735 25.225L14.775 26.265C14.8974 26.3874 15.0427 26.4846 15.2027 26.5508C15.3626 26.6171 15.5341 26.6512 15.7072 26.6512C15.8803 26.6512 16.0518 26.6171 16.2117 26.5508C16.3716 26.4846 16.517 26.3874 16.6394 26.265C16.6503 26.2526 16.6649 26.2439 16.681 26.2401C16.6971 26.2362 16.714 26.2375 16.7294 26.2438C17.1037 26.4413 17.4953 26.6041 17.8994 26.73C17.9142 26.7368 17.9265 26.7479 17.9349 26.7618C17.9433 26.7757 17.9472 26.7919 17.9463 26.8081C17.9469 27.1574 18.086 27.4922 18.3331 27.739C18.5802 27.9859 18.9151 28.1247 19.2644 28.125H20.7356C21.085 28.1247 21.42 27.9858 21.6671 27.7388C21.9142 27.4918 22.0533 27.1569 22.0537 26.8075C22.0527 26.7915 22.0565 26.7756 22.0646 26.7617C22.0728 26.7479 22.0849 26.7369 22.0994 26.73C22.5036 26.6039 22.8954 26.4411 23.27 26.2438C23.2856 26.2376 23.3026 26.2364 23.3189 26.2402C23.3352 26.244 23.35 26.2526 23.3612 26.265C23.6084 26.5121 23.9436 26.6509 24.2931 26.6509C24.6426 26.6509 24.9778 26.5121 25.225 26.265L26.265 25.225C26.5121 24.9777 26.6509 24.6424 26.6509 24.2928C26.6509 23.9432 26.5121 23.6079 26.265 23.3606C26.2527 23.3496 26.2441 23.335 26.2403 23.3189C26.2365 23.3029 26.2377 23.286 26.2438 23.2706C26.4438 22.8908 26.6083 22.4933 26.735 22.0831C26.74 22.0681 26.7638 22.0519 26.8081 22.0519C27.1571 22.0512 27.4915 21.9123 27.7383 21.6657C27.9851 21.419 28.1242 21.0846 28.125 20.7356ZM26.875 20.7356C26.875 20.7731 26.8444 20.8037 26.7919 20.8037C26.5134 20.8015 26.2416 20.8888 26.0166 21.0527C25.7915 21.2167 25.6251 21.4486 25.5419 21.7144C25.4375 22.0511 25.3024 22.3775 25.1381 22.6894C25.0067 22.9406 24.9595 23.2274 25.0035 23.5075C25.0475 23.7876 25.1804 24.0462 25.3825 24.245C25.3889 24.2513 25.394 24.2588 25.3974 24.267C25.4009 24.2753 25.4027 24.2842 25.4027 24.2931C25.4027 24.3021 25.4009 24.311 25.3974 24.3192C25.394 24.3275 25.3889 24.335 25.3825 24.3412L24.3412 25.3813C24.335 25.3878 24.3275 25.393 24.3192 25.3966C24.3108 25.4002 24.3019 25.402 24.2928 25.402C24.2838 25.402 24.2748 25.4002 24.2665 25.3966C24.2581 25.393 24.2506 25.3878 24.2444 25.3813C24.0456 25.1786 23.7868 25.0455 23.5063 25.0016C23.2259 24.9577 22.9387 25.0053 22.6875 25.1375C22.3797 25.299 22.058 25.4325 21.7263 25.5363C21.4565 25.6213 21.2211 25.7908 21.0548 26.0196C20.8886 26.2485 20.8001 26.5246 20.8025 26.8075C20.8023 26.8255 20.7951 26.8426 20.7823 26.8553C20.7696 26.8679 20.7523 26.875 20.7344 26.875H19.2644C19.2464 26.875 19.2292 26.8679 19.2164 26.8553C19.2037 26.8426 19.1964 26.8255 19.1963 26.8075C19.1985 26.5244 19.1099 26.2481 18.9433 26.0191C18.7768 25.7902 18.5413 25.6207 18.2712 25.5356C17.9396 25.432 17.6181 25.2986 17.3106 25.1369C17.1225 25.038 16.9132 24.9863 16.7006 24.9862C16.5248 24.9866 16.3507 25.0217 16.1884 25.0895C16.0262 25.1573 15.8789 25.2564 15.755 25.3813C15.7487 25.3876 15.7412 25.3927 15.733 25.3962C15.7247 25.3996 15.7158 25.4014 15.7069 25.4014C15.6979 25.4014 15.689 25.3996 15.6808 25.3962C15.6725 25.3927 15.665 25.3876 15.6588 25.3813L14.6187 24.3412C14.6123 24.335 14.6071 24.3274 14.6036 24.3191C14.6001 24.3108 14.5983 24.3018 14.5983 24.2928C14.5983 24.2838 14.6001 24.2748 14.6036 24.2665C14.6071 24.2582 14.6123 24.2507 14.6187 24.2444C14.8211 24.0454 14.9541 23.7866 14.998 23.5062C15.0419 23.2259 14.9944 22.9388 14.8625 22.6875C14.701 22.3797 14.5675 22.058 14.4638 21.7263C14.3787 21.4565 14.2092 21.2211 13.9804 21.0548C13.7515 20.8886 13.4754 20.8001 13.1925 20.8025C13.1748 20.8023 13.1578 20.7953 13.1452 20.7828C13.1326 20.7703 13.1253 20.7534 13.125 20.7356V19.2644C13.125 19.2464 13.1321 19.2292 13.1447 19.2164C13.1574 19.2037 13.1745 19.1964 13.1925 19.1963C13.4756 19.1985 13.7519 19.1099 13.9809 18.9433C14.2098 18.7768 14.3793 18.5413 14.4644 18.2712C14.568 17.9396 14.7014 17.6181 14.8631 17.3106C14.9945 17.0594 15.0417 16.7726 14.9977 16.4925C14.9537 16.2124 14.8209 15.9538 14.6187 15.755C14.6124 15.7487 14.6073 15.7412 14.6038 15.733C14.6004 15.7247 14.5986 15.7158 14.5986 15.7069C14.5986 15.6979 14.6004 15.689 14.6038 15.6808C14.6073 15.6725 14.6124 15.665 14.6187 15.6588L15.6588 14.6187C15.665 14.6123 15.6726 14.6071 15.6809 14.6036C15.6892 14.6001 15.6982 14.5983 15.7072 14.5983C15.7162 14.5983 15.7252 14.6001 15.7335 14.6036C15.7418 14.6071 15.7493 14.6123 15.7556 14.6187C15.9546 14.8207 16.2132 14.9534 16.4933 14.9972C16.7734 15.041 17.0602 14.9935 17.3112 14.8619C17.6232 14.6979 17.9496 14.5629 18.2862 14.4588C18.5542 14.3739 18.7876 14.2047 18.9516 13.9764C19.1156 13.7481 19.2014 13.4729 19.1963 13.1919C19.1966 13.174 19.2039 13.157 19.2166 13.1445C19.2294 13.132 19.2465 13.125 19.2644 13.125H20.7356C20.7536 13.125 20.7708 13.1321 20.7836 13.1447C20.7963 13.1574 20.8036 13.1745 20.8037 13.1925C20.8015 13.4756 20.8901 13.7519 21.0567 13.9809C21.2232 14.2098 21.4587 14.3793 21.7287 14.4644C22.0604 14.568 22.3819 14.7014 22.6894 14.8631C22.9407 14.9942 23.2274 15.0412 23.5075 14.9973C23.7875 14.9533 24.046 14.8206 24.245 14.6187C24.2513 14.6124 24.2588 14.6073 24.267 14.6038C24.2753 14.6004 24.2842 14.5986 24.2931 14.5986C24.3021 14.5986 24.311 14.6004 24.3192 14.6038C24.3275 14.6073 24.335 14.6124 24.3412 14.6187L25.3813 15.6588C25.3877 15.665 25.3929 15.6726 25.3964 15.6809C25.3999 15.6892 25.4017 15.6982 25.4017 15.7072C25.4017 15.7162 25.3999 15.7252 25.3964 15.7335C25.3929 15.7418 25.3877 15.7493 25.3813 15.7556C25.1789 15.9546 25.0459 16.2134 25.002 16.4938C24.9581 16.7741 25.0056 17.0612 25.1375 17.3125C25.299 17.6203 25.4325 17.942 25.5363 18.2738C25.6213 18.5435 25.7908 18.7789 26.0196 18.9452C26.2485 19.1114 26.5246 19.1999 26.8075 19.1975C26.8255 19.1977 26.8426 19.2049 26.8553 19.2177C26.8679 19.2304 26.875 19.2477 26.875 19.2656V20.7356Z" fill="#6A47ED"/>
<path d="M20 16.2499C19.2583 16.2499 18.5333 16.4698 17.9166 16.8819C17.2999 17.2939 16.8193 17.8796 16.5355 18.5648C16.2516 19.25 16.1774 20.004 16.3221 20.7315C16.4668 21.4589 16.8239 22.1271 17.3484 22.6515C17.8728 23.176 18.541 23.5331 19.2684 23.6778C19.9958 23.8225 20.7498 23.7482 21.4351 23.4644C22.1203 23.1806 22.706 22.6999 23.118 22.0833C23.5301 21.4666 23.75 20.7415 23.75 19.9999C23.749 19.0056 23.3536 18.0524 22.6506 17.3493C21.9475 16.6463 20.9943 16.2509 20 16.2499ZM20 22.4999C19.5056 22.4999 19.0222 22.3532 18.6111 22.0785C18.2 21.8038 17.8795 21.4134 17.6903 20.9566C17.5011 20.4998 17.4516 19.9971 17.548 19.5121C17.6445 19.0272 17.8826 18.5817 18.2322 18.2321C18.5819 17.8825 19.0273 17.6444 19.5123 17.5479C19.9972 17.4514 20.4999 17.5009 20.9567 17.6902C21.4135 17.8794 21.804 18.1998 22.0787 18.6109C22.3534 19.0221 22.5 19.5054 22.5 19.9999C22.5 20.6629 22.2366 21.2988 21.7678 21.7676C21.2989 22.2365 20.663 22.4999 20 22.4999ZM18.75 8.74987H21.25C21.4158 8.74987 21.5747 8.68402 21.6919 8.56681C21.8092 8.4496 21.875 8.29063 21.875 8.12487V5.62487H23.125C23.2486 5.62484 23.3694 5.58817 23.4722 5.51949C23.5749 5.45081 23.655 5.35321 23.7023 5.23903C23.7496 5.12484 23.762 4.99919 23.7379 4.87797C23.7138 4.75675 23.6543 4.6454 23.5669 4.55799L20.4419 1.43299C20.3247 1.31582 20.1657 1.25 20 1.25C19.8343 1.25 19.6753 1.31582 19.5581 1.43299L16.4331 4.55799C16.3457 4.6454 16.2862 4.75675 16.2621 4.87797C16.238 4.99919 16.2504 5.12484 16.2977 5.23903C16.345 5.35321 16.4251 5.45081 16.5278 5.51949C16.6306 5.58817 16.7514 5.62484 16.875 5.62487H18.125V8.12487C18.125 8.29063 18.1909 8.4496 18.3081 8.56681C18.4253 8.68402 18.5842 8.74987 18.75 8.74987ZM20 2.75862L21.6163 4.37487H21.25C21.0842 4.37487 20.9253 4.44071 20.8081 4.55792C20.6909 4.67514 20.625 4.83411 20.625 4.99987V7.49987H19.375V4.99987C19.375 4.83411 19.3092 4.67514 19.1919 4.55792C19.0747 4.44071 18.9158 4.37487 18.75 4.37487H18.3838L20 2.75862ZM23.125 34.3749H21.875V31.8749C21.875 31.7091 21.8092 31.5501 21.6919 31.4329C21.5747 31.3157 21.4158 31.2499 21.25 31.2499H18.75C18.5842 31.2499 18.4253 31.3157 18.3081 31.4329C18.1909 31.5501 18.125 31.7091 18.125 31.8749V34.3749H16.875C16.7514 34.3749 16.6306 34.4116 16.5278 34.4802C16.4251 34.5489 16.345 34.6465 16.2977 34.7607C16.2504 34.8749 16.238 35.0005 16.2621 35.1218C16.2862 35.243 16.3457 35.3543 16.4331 35.4417L19.5581 38.5667C19.6753 38.6839 19.8343 38.7497 20 38.7497C20.1657 38.7497 20.3247 38.6839 20.4419 38.5667L23.5669 35.4417C23.6543 35.3543 23.7138 35.243 23.7379 35.1218C23.762 35.0005 23.7496 34.8749 23.7023 34.7607C23.655 34.6465 23.5749 34.5489 23.4722 34.4802C23.3694 34.4116 23.2486 34.3749 23.125 34.3749ZM20 37.2411L18.3838 35.6249H18.75C18.9158 35.6249 19.0747 35.559 19.1919 35.4418C19.3092 35.3246 19.375 35.1656 19.375 34.9999V32.4999H20.625V34.9999C20.625 35.1656 20.6909 35.3246 20.8081 35.4418C20.9253 35.559 21.0842 35.6249 21.25 35.6249H21.6163L20 37.2411ZM35.4419 16.433C35.3545 16.3456 35.2431 16.2861 35.1219 16.262C35.0007 16.2379 34.875 16.2503 34.7608 16.2976C34.6467 16.3449 34.5491 16.4249 34.4804 16.5277C34.4117 16.6305 34.375 16.7513 34.375 16.8749V18.1249H31.875C31.7092 18.1249 31.5503 18.1907 31.4331 18.3079C31.3159 18.4251 31.25 18.5841 31.25 18.7499V21.2499C31.25 21.4156 31.3159 21.5746 31.4331 21.6918C31.5503 21.809 31.7092 21.8749 31.875 21.8749H34.375V23.1249C34.375 23.2485 34.4116 23.3693 34.4802 23.4721C34.5489 23.5749 34.6465 23.655 34.7606 23.7024C34.8365 23.734 34.9178 23.7501 35 23.7499C35.1658 23.7498 35.3247 23.684 35.4419 23.5667L38.5669 20.4417C38.684 20.3245 38.7499 20.1656 38.7499 19.9999C38.7499 19.8341 38.684 19.6752 38.5669 19.558L35.4419 16.433ZM35.625 21.6161V21.2499C35.625 21.0841 35.5592 20.9251 35.4419 20.8079C35.3247 20.6907 35.1658 20.6249 35 20.6249H32.5V19.3749H35C35.1658 19.3749 35.3247 19.309 35.4419 19.1918C35.5592 19.0746 35.625 18.9156 35.625 18.7499V18.3836L37.2413 19.9999L35.625 21.6161ZM8.75 21.2499V18.7499C8.75 18.5841 8.68416 18.4251 8.56695 18.3079C8.44974 18.1907 8.29076 18.1249 8.125 18.1249H5.625V16.8749C5.62498 16.7513 5.58831 16.6305 5.51963 16.5277C5.45095 16.4249 5.35335 16.3449 5.23916 16.2976C5.12498 16.2503 4.99933 16.2379 4.87811 16.262C4.75689 16.2861 4.64554 16.3456 4.55813 16.433L1.43313 19.558C1.31596 19.6752 1.25014 19.8341 1.25014 19.9999C1.25014 20.1656 1.31596 20.3245 1.43313 20.4417L4.55813 23.5667C4.67531 23.684 4.83426 23.7498 5 23.7499C5.08216 23.7501 5.16355 23.734 5.23938 23.7024C5.35356 23.655 5.45114 23.5749 5.51978 23.4721C5.58842 23.3693 5.62503 23.2485 5.625 23.1249V21.8749H8.125C8.29076 21.8749 8.44974 21.809 8.56695 21.6918C8.68416 21.5746 8.75 21.4156 8.75 21.2499ZM7.5 20.6249H5C4.83424 20.6249 4.67527 20.6907 4.55806 20.8079C4.44085 20.9251 4.375 21.0841 4.375 21.2499V21.6161L2.75875 19.9999L4.375 18.3836V18.7499C4.375 18.9156 4.44085 19.0746 4.55806 19.1918C4.67527 19.309 4.83424 19.3749 5 19.3749H7.5V20.6249ZM26.8881 10.7186C26.888 10.8843 26.9536 11.0432 27.0706 11.1605L28.8394 12.9292C28.9566 13.0464 29.1155 13.1122 29.2813 13.1122C29.447 13.1122 29.6059 13.0464 29.7231 12.9292L31.4906 11.1605L32.375 12.0449C32.4624 12.1322 32.5738 12.1918 32.695 12.2159C32.8162 12.24 32.9419 12.2276 33.056 12.1803C33.1702 12.133 33.2678 12.0529 33.3365 11.9502C33.4052 11.8474 33.4419 11.7266 33.4419 11.603V7.18362C33.4419 7.01786 33.376 6.85888 33.2588 6.74167C33.1416 6.62446 32.9826 6.55862 32.8169 6.55862H28.3969C28.2733 6.55864 28.1525 6.59531 28.0497 6.66399C27.947 6.73267 27.8669 6.83027 27.8196 6.94446C27.7723 7.05864 27.7599 7.18429 27.784 7.30551C27.8081 7.42673 27.8676 7.53808 27.955 7.62549L28.8394 8.50924L27.0706 10.2767C26.9536 10.394 26.888 10.553 26.8881 10.7186ZM30.165 8.95112C30.2822 8.83391 30.348 8.67497 30.348 8.50924C30.348 8.34351 30.2822 8.18457 30.165 8.06737L29.9063 7.80862H32.1913V10.0936L31.9325 9.83487C31.8153 9.7177 31.6564 9.65187 31.4906 9.65187C31.3249 9.65187 31.166 9.7177 31.0488 9.83487L29.2813 11.603L28.3969 10.7186L30.165 8.95112ZM11.1606 27.0705C11.0412 26.9576 10.8831 26.8947 10.7188 26.8947C10.5544 26.8947 10.3963 26.9576 10.2769 27.0705L8.50938 28.8392L7.625 27.9549C7.5376 27.8675 7.42624 27.808 7.30502 27.7839C7.1838 27.7598 7.05816 27.7721 6.94397 27.8194C6.82978 27.8667 6.73218 27.9468 6.6635 28.0496C6.59482 28.1523 6.55816 28.2731 6.55813 28.3967V32.8161C6.55813 32.9819 6.62398 33.1408 6.74119 33.2581C6.8584 33.3753 7.01737 33.4411 7.18313 33.4411H11.6025C11.7261 33.4411 11.8469 33.4044 11.9497 33.3357C12.0524 33.2671 12.1325 33.1695 12.1798 33.0553C12.2271 32.9411 12.2395 32.8154 12.2154 32.6942C12.1913 32.573 12.1318 32.4616 12.0444 32.3742L11.16 31.4905L12.9288 29.723C13.0459 29.6058 13.1117 29.4468 13.1117 29.2811C13.1117 29.1154 13.0459 28.9564 12.9288 28.8392L11.1606 27.0705ZM9.835 31.0486C9.71783 31.1658 9.65201 31.3248 9.65201 31.4905C9.65201 31.6562 9.71783 31.8152 9.835 31.9324L10.0938 32.1911H7.80875V29.9061L8.0675 30.1649C8.18471 30.282 8.34365 30.3479 8.50938 30.3479C8.67511 30.3479 8.83405 30.282 8.95125 30.1649L10.7188 28.3967L11.6031 29.2811L9.835 31.0486ZM33.0556 27.8192C32.9414 27.7719 32.8157 27.7596 32.6944 27.7837C32.5732 27.8078 32.4618 27.8674 32.3744 27.9549L31.4906 28.8392L29.7231 27.0705C29.6059 26.9533 29.447 26.8875 29.2813 26.8875C29.1155 26.8875 28.9566 26.9533 28.8394 27.0705L27.0706 28.8392C26.9535 28.9564 26.8876 29.1154 26.8876 29.2811C26.8876 29.4468 26.9535 29.6058 27.0706 29.723L28.8394 31.4905L27.955 32.3749C27.8676 32.4623 27.8081 32.5736 27.784 32.6948C27.7599 32.8161 27.7723 32.9417 27.8196 33.0559C27.8669 33.1701 27.947 33.2677 28.0497 33.3364C28.1525 33.405 28.2733 33.4417 28.3969 33.4417H32.8163C32.982 33.4417 33.141 33.3759 33.2582 33.2587C33.3754 33.1415 33.4413 32.9825 33.4413 32.8167V28.3967C33.4413 28.2731 33.4047 28.1523 33.336 28.0495C33.2674 27.9467 33.1698 27.8666 33.0556 27.8192ZM32.1913 32.1911H29.9063L30.165 31.9324C30.2822 31.8152 30.348 31.6562 30.348 31.4905C30.348 31.3248 30.2822 31.1658 30.165 31.0486L28.3969 29.2811L29.2813 28.3967L31.0488 30.1649C31.1682 30.2778 31.3263 30.3407 31.4906 30.3407C31.655 30.3407 31.8131 30.2778 31.9325 30.1649L32.1913 29.9061V32.1911ZM12.1806 6.94424C12.1333 6.83006 12.0532 6.73248 11.9504 6.66384C11.8476 6.5952 11.7267 6.55859 11.6031 6.55862H7.18375C7.01799 6.55862 6.85902 6.62446 6.74181 6.74167C6.6246 6.85888 6.55875 7.01786 6.55875 7.18362V11.603C6.55878 11.7266 6.59545 11.8474 6.66413 11.9502C6.73281 12.0529 6.83041 12.133 6.94459 12.1803C7.05878 12.2276 7.18443 12.24 7.30565 12.2159C7.42687 12.1918 7.53822 12.1322 7.62563 12.0449L8.50938 11.1605L10.2769 12.9292C10.3941 13.0464 10.553 13.1122 10.7188 13.1122C10.8845 13.1122 11.0434 13.0464 11.1606 12.9292L12.9294 11.1605C13.0465 11.0433 13.1124 10.8843 13.1124 10.7186C13.1124 10.5529 13.0465 10.3939 12.9294 10.2767L11.1606 8.50924L12.045 7.62487C12.1323 7.53752 12.1918 7.42625 12.216 7.30511C12.2401 7.18397 12.2278 7.0584 12.1806 6.94424ZM11.6031 10.7186L10.7188 11.603L8.95125 9.83487C8.83405 9.7177 8.67511 9.65187 8.50938 9.65187C8.34365 9.65187 8.18471 9.7177 8.0675 9.83487L7.80875 10.0936V7.80862H10.0938L9.835 8.06737C9.71783 8.18457 9.65201 8.34351 9.65201 8.50924C9.65201 8.67497 9.71783 8.83391 9.835 8.95112L11.6031 10.7186Z" fill="#6A47ED"/>
</svg>
