<svg width="38" height="38" viewBox="0 0 38 38" fill="none" xmlns="http://www.w3.org/2000/svg">
<path d="M19 29.625C18.0111 29.625 17.0444 29.3318 16.2221 28.7824C15.3999 28.2329 14.759 27.452 14.3806 26.5384C14.0022 25.6248 13.9031 24.6195 14.0961 23.6496C14.289 22.6796 14.7652 21.7887 15.4645 21.0895C16.1637 20.3902 17.0546 19.914 18.0245 19.7211C18.9945 19.5281 19.9998 19.6272 20.9134 20.0056C21.827 20.384 22.6079 21.0249 23.1573 21.8472C23.7068 22.6694 24 23.6361 24 24.625C23.9985 25.9506 23.4712 27.2215 22.5339 28.1589C21.5965 29.0963 20.3256 29.6235 19 29.625ZM19 20.875C18.2583 20.875 17.5333 21.0949 16.9166 21.507C16.2999 21.919 15.8193 22.5047 15.5355 23.1899C15.2516 23.8752 15.1774 24.6292 15.3221 25.3566C15.4667 26.084 15.8239 26.7522 16.3483 27.2767C16.8728 27.8011 17.541 28.1583 18.2684 28.3029C18.9958 28.4476 19.7498 28.3734 20.4351 28.0896C21.1203 27.8057 21.706 27.3251 22.118 26.7084C22.5301 26.0917 22.75 25.3667 22.75 24.625C22.749 23.6307 22.3536 22.6775 21.6506 21.9744C20.9475 21.2714 19.9943 20.876 19 20.875ZM26.5 37.75C26.3342 37.75 26.1753 37.6842 26.0581 37.5669C25.9408 37.4497 25.875 37.2908 25.875 37.125V33.375C25.875 32.7388 23.4481 31.5 19 31.5C14.5519 31.5 12.125 32.7388 12.125 33.375V37.125C12.125 37.2908 12.0592 37.4497 11.9419 37.5669C11.8247 37.6842 11.6658 37.75 11.5 37.75C11.3342 37.75 11.1753 37.6842 11.0581 37.5669C10.9408 37.4497 10.875 37.2908 10.875 37.125V33.375C10.875 31.3231 14.9625 30.25 19 30.25C23.0375 30.25 27.125 31.3231 27.125 33.375V37.125C27.125 37.2908 27.0592 37.4497 26.9419 37.5669C26.8247 37.6842 26.6658 37.75 26.5 37.75ZM29.625 26.5C28.6361 26.5 27.6694 26.2068 26.8471 25.6574C26.0249 25.1079 25.384 24.327 25.0056 23.4134C24.6272 22.4998 24.5281 21.4945 24.7211 20.5246C24.914 19.5546 25.3902 18.6637 26.0895 17.9645C26.7887 17.2652 27.6796 16.789 28.6495 16.5961C29.6195 16.4031 30.6248 16.5022 31.5384 16.8806C32.452 17.259 33.2329 17.8999 33.7823 18.7222C34.3318 19.5444 34.625 20.5111 34.625 21.5C34.6235 22.8256 34.0962 24.0965 33.1589 25.0339C32.2215 25.9713 30.9506 26.4985 29.625 26.5ZM29.625 17.75C28.8833 17.75 28.1583 17.9699 27.5416 18.382C26.9249 18.794 26.4443 19.3797 26.1605 20.0649C25.8766 20.7502 25.8024 21.5042 25.9471 22.2316C26.0917 22.959 26.4489 23.6272 26.9733 24.1517C27.4978 24.6761 28.166 25.0333 28.8934 25.1779C29.6208 25.3226 30.3748 25.2484 31.0601 24.9646C31.7453 24.6807 32.331 24.2001 32.743 23.5834C33.1551 22.9667 33.375 22.2417 33.375 21.5C33.374 20.5057 32.9786 19.5525 32.2756 18.8494C31.5725 18.1464 30.6193 17.751 29.625 17.75Z" fill="#6A47ED"/>
<path d="M37.125 34.6246C36.9592 34.6246 36.8003 34.5588 36.6831 34.4416C36.5658 34.3244 36.5 34.1654 36.5 33.9996V30.2496C36.5 29.6134 34.0731 28.3746 29.625 28.3746C27.0625 28.3746 24.6875 28.8215 23.4375 29.5409C23.3664 29.5826 23.2877 29.6098 23.2061 29.621C23.1244 29.6321 23.0413 29.627 22.9617 29.606C22.882 29.5849 22.8072 29.5483 22.7418 29.4982C22.6763 29.4481 22.6214 29.3856 22.5801 29.3142C22.5389 29.2428 22.5122 29.164 22.5016 29.0823C22.491 29.0005 22.4966 28.9175 22.5182 28.838C22.5398 28.7584 22.577 28.6839 22.6275 28.6188C22.678 28.5536 22.7408 28.4991 22.8125 28.4584C24.2656 27.6246 26.8125 27.1246 29.625 27.1246C33.6625 27.1246 37.75 28.1978 37.75 30.2496V33.9996C37.75 34.1654 37.6842 34.3244 37.5669 34.4416C37.4497 34.5588 37.2908 34.6246 37.125 34.6246ZM8.375 26.4996C7.38609 26.4996 6.41939 26.2064 5.59715 25.657C4.7749 25.1076 4.13404 24.3267 3.7556 23.4131C3.37716 22.4994 3.27815 21.4941 3.47107 20.5242C3.664 19.5543 4.1402 18.6634 4.83947 17.9641C5.53873 17.2649 6.42964 16.7886 7.39955 16.5957C8.36945 16.4028 9.37479 16.5018 10.2884 16.8802C11.202 17.2587 11.9829 17.8996 12.5323 18.7218C13.0818 19.544 13.375 20.5107 13.375 21.4996C13.3735 22.8253 12.8462 24.0962 11.9089 25.0335C10.9715 25.9709 9.70063 26.4982 8.375 26.4996ZM8.375 17.7496C7.63332 17.7496 6.9083 17.9696 6.29161 18.3816C5.67493 18.7937 5.19428 19.3794 4.91045 20.0646C4.62662 20.7498 4.55236 21.5038 4.69706 22.2312C4.84175 22.9587 5.1989 23.6269 5.72335 24.1513C6.2478 24.6757 6.91598 25.0329 7.64341 25.1776C8.37084 25.3223 9.12484 25.248 9.81006 24.9642C10.4953 24.6804 11.081 24.1997 11.493 23.583C11.9051 22.9664 12.125 22.2413 12.125 21.4996C12.124 20.5054 11.7286 19.5521 11.0256 18.8491C10.3225 18.146 9.36926 17.7506 8.375 17.7496ZM0.875 34.6246C0.70924 34.6246 0.550268 34.5588 0.433058 34.4416C0.315848 34.3244 0.25 34.1654 0.25 33.9996V30.2496C0.25 28.1978 4.3375 27.1246 8.375 27.1246C11.1875 27.1246 13.7344 27.6246 15.1837 28.4584C15.2554 28.4991 15.3183 28.5536 15.3688 28.6188C15.4193 28.6839 15.4564 28.7584 15.478 28.838C15.4996 28.9175 15.5053 29.0005 15.4946 29.0823C15.484 29.164 15.4573 29.2428 15.4161 29.3142C15.3749 29.3856 15.32 29.4481 15.2545 29.4982C15.189 29.5483 15.1143 29.5849 15.0346 29.606C14.9549 29.627 14.8718 29.6321 14.7902 29.621C14.7085 29.6098 14.6299 29.5826 14.5587 29.5409C13.3125 28.8215 10.9406 28.3746 8.375 28.3746C3.92687 28.3746 1.5 29.6134 1.5 30.2496V33.9996C1.5 34.1654 1.43415 34.3244 1.31694 34.4416C1.19973 34.5588 1.04076 34.6246 0.875 34.6246ZM9.05563 15.8746C8.92868 15.8746 8.80476 15.8358 8.70037 15.7636C8.59598 15.6914 8.51606 15.589 8.47125 15.4703C7.41818 12.6779 7.51751 9.58151 8.74739 6.86235C9.97728 4.14319 12.237 2.02397 15.0294 0.970897C17.8218 -0.0821779 20.9181 0.0171539 23.6373 1.24704C26.3565 2.47693 28.4757 4.73662 29.5288 7.52902C29.5592 7.60611 29.574 7.68848 29.5723 7.77133C29.5706 7.85419 29.5524 7.93588 29.5189 8.01166C29.4853 8.08743 29.437 8.15577 29.3768 8.21271C29.3165 8.26964 29.2456 8.31403 29.1681 8.34328C29.0905 8.37254 29.0079 8.38609 28.9251 8.38313C28.8423 8.38018 28.7609 8.36078 28.6856 8.32607C28.6104 8.29135 28.5428 8.24202 28.4868 8.18094C28.4308 8.11986 28.3875 8.04825 28.3594 7.97027C27.4233 5.48801 25.5395 3.47926 23.1224 2.38592C20.7053 1.29259 17.9529 1.20422 15.4706 2.14027C12.9884 3.07632 10.9796 4.9601 9.88628 7.37721C8.79294 9.79432 8.70458 12.5468 9.64062 15.029C9.66963 15.1058 9.68321 15.1876 9.68059 15.2697C9.67797 15.3518 9.65921 15.4325 9.62537 15.5073C9.59153 15.5822 9.54328 15.6496 9.48338 15.7057C9.42347 15.7619 9.35309 15.8057 9.27625 15.8346C9.20567 15.861 9.13096 15.8745 9.05563 15.8746Z" fill="#6A47ED"/>
<path d="M19 19C17.5166 19 16.0666 18.5601 14.8332 17.736C13.5999 16.9119 12.6386 15.7406 12.0709 14.3701C11.5032 12.9997 11.3547 11.4917 11.6441 10.0368C11.9335 8.58197 12.6478 7.2456 13.6967 6.1967C14.7456 5.14781 16.082 4.4335 17.5368 4.14411C18.9917 3.85472 20.4997 4.00325 21.8701 4.57091C23.2406 5.13856 24.4119 6.09986 25.236 7.33323C26.0601 8.5666 26.5 10.0166 26.5 11.5C26.4979 13.4885 25.707 15.3949 24.3009 16.8009C22.8949 18.207 20.9885 18.9979 19 19ZM19 5.25C17.7639 5.25 16.5555 5.61656 15.5277 6.30332C14.4999 6.99008 13.6988 7.96619 13.2258 9.10823C12.7527 10.2503 12.6289 11.5069 12.8701 12.7193C13.1113 13.9317 13.7065 15.0453 14.5806 15.9194C15.4547 16.7935 16.5683 17.3888 17.7807 17.6299C18.9931 17.8711 20.2497 17.7473 21.3918 17.2743C22.5338 16.8012 23.5099 16.0001 24.1967 14.9723C24.8834 13.9445 25.25 12.7361 25.25 11.5C25.2482 9.84296 24.5891 8.2543 23.4174 7.0826C22.2457 5.91089 20.657 5.25182 19 5.25Z" fill="#6A47ED"/>
<path d="M19 15.25C18.2583 15.25 17.5333 15.0301 16.9166 14.618C16.2999 14.206 15.8193 13.6203 15.5355 12.9351C15.2516 12.2498 15.1774 11.4958 15.3221 10.7684C15.4668 10.041 15.8239 9.3728 16.3484 8.84835C16.8728 8.3239 17.541 7.96675 18.2684 7.82206C18.9958 7.67736 19.7498 7.75162 20.4351 8.03545C21.1203 8.31928 21.706 8.79993 22.118 9.41661C22.5301 10.0333 22.75 10.7583 22.75 11.5C22.749 12.4943 22.3536 13.4475 21.6506 14.1506C20.9475 14.8536 19.9943 15.249 19 15.25ZM19 9C18.5055 9 18.0222 9.14662 17.6111 9.42133C17.2 9.69603 16.8795 10.0865 16.6903 10.5433C16.5011 11.0001 16.4516 11.5028 16.548 11.9877C16.6445 12.4727 16.8826 12.9181 17.2322 13.2678C17.5819 13.6174 18.0273 13.8555 18.5123 13.952C18.9972 14.0484 19.4999 13.9989 19.9567 13.8097C20.4135 13.6205 20.804 13.3 21.0787 12.8889C21.3534 12.4778 21.5 11.9945 21.5 11.5C21.5 10.837 21.2366 10.2011 20.7678 9.73223C20.2989 9.26339 19.663 9 19 9Z" fill="#6A47ED"/>
<path d="M35.25 14.625H30.0575C29.8961 14.6247 29.7412 14.562 29.625 14.45L27.2094 12.125H19C18.8342 12.125 18.6753 12.0592 18.5581 11.9419C18.4408 11.8247 18.375 11.6658 18.375 11.5C18.375 11.3342 18.4408 11.1753 18.5581 11.0581C18.6753 10.9408 18.8342 10.875 19 10.875H27.2094L29.625 8.55C29.7413 8.43788 29.8966 8.37516 30.0581 8.375H35.25C35.3746 8.375 35.4963 8.41223 35.5996 8.48193C35.7029 8.55162 35.783 8.6506 35.8296 8.76614C35.8762 8.88168 35.8873 9.00852 35.8613 9.13038C35.8353 9.25223 35.7735 9.36353 35.6838 9.45L33.555 11.5L35.6838 13.55C35.7735 13.6365 35.8353 13.7478 35.8613 13.8696C35.8873 13.9915 35.8762 14.1183 35.8296 14.2339C35.783 14.3494 35.7029 14.4484 35.5996 14.5181C35.4963 14.5878 35.3746 14.625 35.25 14.625ZM30.3125 13.375H33.7L32.4019 12.125H29.0119L30.3125 13.375ZM29.0144 10.875H32.4044L33.7025 9.625H30.3125L29.0144 10.875Z" fill="#6A47ED"/>
</svg>
