<svg width="38" height="38" viewBox="0 0 38 38" fill="none" xmlns="http://www.w3.org/2000/svg">
<path d="M27.125 19.7356V18.2644C27.1247 17.915 26.9858 17.58 26.7388 17.3329C26.4918 17.0858 26.1569 16.9467 25.8075 16.9463C25.7915 16.9473 25.7756 16.9435 25.7617 16.9354C25.7479 16.9272 25.7369 16.9151 25.73 16.9006C25.6039 16.4964 25.4411 16.1046 25.2438 15.73C25.2375 15.7144 25.2362 15.6974 25.24 15.681C25.2438 15.6647 25.2525 15.65 25.265 15.6388C25.5121 15.3916 25.6509 15.0564 25.6509 14.7069C25.6509 14.3574 25.5121 14.0222 25.265 13.775L24.225 12.735C24.1026 12.6126 23.9573 12.5154 23.7973 12.4492C23.6374 12.3829 23.4659 12.3488 23.2928 12.3488C23.1197 12.3488 22.9482 12.3829 22.7883 12.4492C22.6284 12.5154 22.483 12.6126 22.3606 12.735C22.3495 12.7471 22.3349 12.7556 22.3189 12.7594C22.3028 12.7632 22.286 12.7621 22.2706 12.7563C21.8963 12.5587 21.5047 12.3959 21.1006 12.27C21.0858 12.2632 21.0735 12.2521 21.0651 12.2382C21.0567 12.2243 21.0528 12.2081 21.0537 12.1919C21.0531 11.8426 20.914 11.5078 20.6669 11.261C20.4198 11.0141 20.0849 10.8753 19.7356 10.875H18.2644C18.0902 10.8757 17.9179 10.9107 17.7573 10.9781C17.5966 11.0455 17.4509 11.144 17.3285 11.2678C17.206 11.3917 17.1092 11.5385 17.0436 11.6999C16.978 11.8612 16.9449 12.0339 16.9463 12.2081C16.9469 12.2196 16.9444 12.231 16.939 12.2412C16.9336 12.2513 16.9255 12.2598 16.9156 12.2656C16.5055 12.3922 16.108 12.5564 15.7281 12.7563C15.7126 12.7624 15.6955 12.7636 15.6792 12.7598C15.6629 12.756 15.6481 12.7474 15.6369 12.735C15.3897 12.4879 15.0545 12.3491 14.705 12.3491C14.3555 12.3491 14.0203 12.4879 13.7731 12.735L12.735 13.775C12.4879 14.0223 12.3491 14.3576 12.3491 14.7072C12.3491 15.0568 12.4879 15.3921 12.735 15.6394C12.7473 15.6504 12.7559 15.665 12.7597 15.6811C12.7635 15.6971 12.7623 15.714 12.7563 15.7294C12.5587 16.1037 12.3959 16.4953 12.27 16.8994C12.2632 16.9142 12.2521 16.9265 12.2382 16.9349C12.2243 16.9433 12.2081 16.9472 12.1919 16.9463C11.8426 16.9469 11.5078 17.086 11.261 17.3331C11.0141 17.5802 10.8753 17.9151 10.875 18.2644V19.7356C10.8753 20.085 11.0142 20.42 11.2612 20.6671C11.5082 20.9142 11.8431 21.0533 12.1925 21.0537C12.2085 21.0527 12.2244 21.0565 12.2383 21.0646C12.2521 21.0728 12.2631 21.0849 12.27 21.0994C12.3961 21.5036 12.5589 21.8954 12.7563 22.27C12.7625 22.2856 12.7638 22.3026 12.76 22.319C12.7562 22.3353 12.7475 22.35 12.735 22.3612C12.4879 22.6084 12.3491 22.9436 12.3491 23.2931C12.3491 23.6426 12.4879 23.9778 12.735 24.225L13.775 25.265C13.8974 25.3874 14.0427 25.4846 14.2027 25.5508C14.3626 25.6171 14.5341 25.6512 14.7072 25.6512C14.8803 25.6512 15.0518 25.6171 15.2117 25.5508C15.3716 25.4846 15.517 25.3874 15.6394 25.265C15.6503 25.2526 15.6649 25.2439 15.681 25.2401C15.6971 25.2362 15.714 25.2375 15.7294 25.2438C16.1037 25.4413 16.4953 25.6041 16.8994 25.73C16.9142 25.7368 16.9265 25.7479 16.9349 25.7618C16.9433 25.7757 16.9472 25.7919 16.9463 25.8081C16.9469 26.1574 17.086 26.4922 17.3331 26.739C17.5802 26.9859 17.9151 27.1247 18.2644 27.125H19.7356C20.085 27.1247 20.42 26.9858 20.6671 26.7388C20.9142 26.4918 21.0533 26.1569 21.0537 25.8075C21.0527 25.7915 21.0565 25.7756 21.0646 25.7617C21.0728 25.7479 21.0849 25.7369 21.0994 25.73C21.5036 25.6039 21.8954 25.4411 22.27 25.2438C22.2856 25.2376 22.3026 25.2364 22.3189 25.2402C22.3352 25.244 22.35 25.2526 22.3612 25.265C22.6084 25.5121 22.9436 25.6509 23.2931 25.6509C23.6426 25.6509 23.9778 25.5121 24.225 25.265L25.265 24.225C25.5121 23.9777 25.6509 23.6424 25.6509 23.2928C25.6509 22.9432 25.5121 22.6079 25.265 22.3606C25.2527 22.3496 25.2441 22.335 25.2403 22.3189C25.2365 22.3029 25.2377 22.286 25.2438 22.2706C25.4438 21.8908 25.6083 21.4933 25.735 21.0831C25.74 21.0681 25.7638 21.0519 25.8081 21.0519C26.1571 21.0512 26.4915 20.9123 26.7383 20.6657C26.9851 20.419 27.1242 20.0846 27.125 19.7356ZM25.875 19.7356C25.875 19.7731 25.8444 19.8037 25.7919 19.8037C25.5134 19.8015 25.2416 19.8888 25.0166 20.0527C24.7915 20.2167 24.6251 20.4486 24.5419 20.7144C24.4375 21.0511 24.3024 21.3775 24.1381 21.6894C24.0067 21.9406 23.9595 22.2274 24.0035 22.5075C24.0475 22.7876 24.1804 23.0462 24.3825 23.245C24.3889 23.2513 24.394 23.2588 24.3974 23.267C24.4009 23.2753 24.4027 23.2842 24.4027 23.2931C24.4027 23.3021 24.4009 23.311 24.3974 23.3192C24.394 23.3275 24.3889 23.335 24.3825 23.3412L23.3412 24.3813C23.335 24.3878 23.3275 24.393 23.3192 24.3966C23.3108 24.4002 23.3019 24.402 23.2928 24.402C23.2838 24.402 23.2748 24.4002 23.2665 24.3966C23.2581 24.393 23.2506 24.3878 23.2444 24.3813C23.0456 24.1786 22.7868 24.0455 22.5063 24.0016C22.2259 23.9577 21.9387 24.0053 21.6875 24.1375C21.3797 24.299 21.058 24.4325 20.7263 24.5363C20.4565 24.6213 20.2211 24.7908 20.0548 25.0196C19.8886 25.2485 19.8001 25.5246 19.8025 25.8075C19.8023 25.8255 19.7951 25.8426 19.7823 25.8553C19.7696 25.8679 19.7523 25.875 19.7344 25.875H18.2644C18.2464 25.875 18.2292 25.8679 18.2164 25.8553C18.2037 25.8426 18.1964 25.8255 18.1963 25.8075C18.1985 25.5244 18.1099 25.2481 17.9433 25.0191C17.7768 24.7902 17.5413 24.6207 17.2712 24.5356C16.9396 24.432 16.6181 24.2986 16.3106 24.1369C16.1225 24.038 15.9132 23.9863 15.7006 23.9862C15.5248 23.9866 15.3507 24.0217 15.1884 24.0895C15.0262 24.1573 14.8789 24.2564 14.755 24.3813C14.7487 24.3876 14.7412 24.3927 14.733 24.3962C14.7247 24.3996 14.7158 24.4014 14.7069 24.4014C14.6979 24.4014 14.689 24.3996 14.6808 24.3962C14.6725 24.3927 14.665 24.3876 14.6588 24.3813L13.6187 23.3412C13.6123 23.335 13.6071 23.3274 13.6036 23.3191C13.6001 23.3108 13.5983 23.3018 13.5983 23.2928C13.5983 23.2838 13.6001 23.2748 13.6036 23.2665C13.6071 23.2582 13.6123 23.2507 13.6187 23.2444C13.8211 23.0454 13.9541 22.7866 13.998 22.5062C14.0419 22.2259 13.9944 21.9388 13.8625 21.6875C13.701 21.3797 13.5675 21.058 13.4638 20.7263C13.3787 20.4565 13.2092 20.2211 12.9804 20.0548C12.7515 19.8886 12.4754 19.8001 12.1925 19.8025C12.1748 19.8023 12.1578 19.7953 12.1452 19.7828C12.1326 19.7703 12.1253 19.7534 12.125 19.7356V18.2644C12.125 18.2464 12.1321 18.2292 12.1447 18.2164C12.1574 18.2037 12.1745 18.1964 12.1925 18.1963C12.4756 18.1985 12.7519 18.1099 12.9809 17.9433C13.2098 17.7768 13.3793 17.5413 13.4644 17.2712C13.568 16.9396 13.7014 16.6181 13.8631 16.3106C13.9945 16.0594 14.0417 15.7726 13.9977 15.4925C13.9537 15.2124 13.8209 14.9538 13.6187 14.755C13.6124 14.7487 13.6073 14.7412 13.6038 14.733C13.6004 14.7247 13.5986 14.7158 13.5986 14.7069C13.5986 14.6979 13.6004 14.689 13.6038 14.6808C13.6073 14.6725 13.6124 14.665 13.6187 14.6588L14.6588 13.6187C14.665 13.6123 14.6726 13.6071 14.6809 13.6036C14.6892 13.6001 14.6982 13.5983 14.7072 13.5983C14.7162 13.5983 14.7252 13.6001 14.7335 13.6036C14.7418 13.6071 14.7493 13.6123 14.7556 13.6187C14.9546 13.8207 15.2132 13.9534 15.4933 13.9972C15.7734 14.041 16.0602 13.9935 16.3112 13.8619C16.6232 13.6979 16.9496 13.5629 17.2862 13.4588C17.5542 13.3739 17.7876 13.2047 17.9516 12.9764C18.1156 12.7481 18.2014 12.4729 18.1963 12.1919C18.1966 12.174 18.2039 12.157 18.2166 12.1445C18.2294 12.132 18.2465 12.125 18.2644 12.125H19.7356C19.7536 12.125 19.7708 12.1321 19.7836 12.1447C19.7963 12.1574 19.8036 12.1745 19.8037 12.1925C19.8015 12.4756 19.8901 12.7519 20.0567 12.9809C20.2232 13.2098 20.4587 13.3793 20.7287 13.4644C21.0604 13.568 21.3819 13.7014 21.6894 13.8631C21.9407 13.9942 22.2274 14.0412 22.5075 13.9973C22.7875 13.9533 23.046 13.8206 23.245 13.6187C23.2513 13.6124 23.2588 13.6073 23.267 13.6038C23.2753 13.6004 23.2842 13.5986 23.2931 13.5986C23.3021 13.5986 23.311 13.6004 23.3192 13.6038C23.3275 13.6073 23.335 13.6124 23.3412 13.6187L24.3813 14.6588C24.3877 14.665 24.3929 14.6726 24.3964 14.6809C24.3999 14.6892 24.4017 14.6982 24.4017 14.7072C24.4017 14.7162 24.3999 14.7252 24.3964 14.7335C24.3929 14.7418 24.3877 14.7493 24.3813 14.7556C24.1789 14.9546 24.0459 15.2134 24.002 15.4938C23.9581 15.7741 24.0056 16.0612 24.1375 16.3125C24.299 16.6203 24.4325 16.942 24.5363 17.2738C24.6213 17.5435 24.7908 17.7789 25.0196 17.9452C25.2485 18.1114 25.5246 18.1999 25.8075 18.1975C25.8255 18.1977 25.8426 18.2049 25.8553 18.2177C25.8679 18.2304 25.875 18.2477 25.875 18.2656V19.7356Z" fill="#6A47ED"/>
<path d="M18.9999 15.2499C18.2582 15.2499 17.5332 15.4698 16.9165 15.8819C16.2998 16.2939 15.8191 16.8796 15.5353 17.5648C15.2515 18.25 15.1772 19.004 15.3219 19.7315C15.4666 20.4589 15.8238 21.1271 16.3482 21.6515C16.8727 22.176 17.5408 22.5331 18.2683 22.6778C18.9957 22.8225 19.7497 22.7482 20.4349 22.4644C21.1202 22.1806 21.7058 21.6999 22.1179 21.0833C22.5299 20.4666 22.7499 19.7415 22.7499 18.9999C22.7489 18.0056 22.3535 17.0524 21.6504 16.3493C20.9474 15.6463 19.9941 15.2509 18.9999 15.2499ZM18.9999 21.4999C18.5054 21.4999 18.0221 21.3532 17.6109 21.0785C17.1998 20.8038 16.8794 20.4134 16.6902 19.9566C16.5009 19.4998 16.4514 18.9971 16.5479 18.5121C16.6444 18.0272 16.8825 17.5817 17.2321 17.2321C17.5817 16.8825 18.0272 16.6444 18.5121 16.5479C18.9971 16.4514 19.4998 16.5009 19.9566 16.6902C20.4134 16.8794 20.8038 17.1998 21.0785 17.6109C21.3532 18.0221 21.4999 18.5054 21.4999 18.9999C21.4999 19.6629 21.2365 20.2988 20.7676 20.7676C20.2988 21.2365 19.6629 21.4999 18.9999 21.4999ZM17.7499 7.74987H20.2499C20.4156 7.74987 20.5746 7.68402 20.6918 7.56681C20.809 7.4496 20.8749 7.29063 20.8749 7.12487V4.62487H22.1249C22.2485 4.62484 22.3693 4.58817 22.472 4.51949C22.5748 4.45081 22.6549 4.35321 22.7022 4.23903C22.7495 4.12484 22.7618 3.99919 22.7377 3.87797C22.7136 3.75675 22.6541 3.6454 22.5667 3.55799L19.4417 0.432991C19.3245 0.315822 19.1656 0.25 18.9999 0.25C18.8341 0.25 18.6752 0.315822 18.558 0.432991L15.433 3.55799C15.3456 3.6454 15.2861 3.75675 15.262 3.87797C15.2379 3.99919 15.2503 4.12484 15.2976 4.23903C15.3449 4.35321 15.4249 4.45081 15.5277 4.51949C15.6305 4.58817 15.7513 4.62484 15.8749 4.62487H17.1249V7.12487C17.1249 7.29063 17.1907 7.4496 17.3079 7.56681C17.4251 7.68402 17.5841 7.74987 17.7499 7.74987ZM18.9999 1.75862L20.6161 3.37487H20.2499C20.0841 3.37487 19.9251 3.44071 19.8079 3.55792C19.6907 3.67514 19.6249 3.83411 19.6249 3.99987V6.49987H18.3749V3.99987C18.3749 3.83411 18.309 3.67514 18.1918 3.55792C18.0746 3.44071 17.9156 3.37487 17.7499 3.37487H17.3836L18.9999 1.75862ZM22.1249 33.3749H20.8749V30.8749C20.8749 30.7091 20.809 30.5501 20.6918 30.4329C20.5746 30.3157 20.4156 30.2499 20.2499 30.2499H17.7499C17.5841 30.2499 17.4251 30.3157 17.3079 30.4329C17.1907 30.5501 17.1249 30.7091 17.1249 30.8749V33.3749H15.8749C15.7513 33.3749 15.6305 33.4116 15.5277 33.4802C15.4249 33.5489 15.3449 33.6465 15.2976 33.7607C15.2503 33.8749 15.2379 34.0005 15.262 34.1218C15.2861 34.243 15.3456 34.3543 15.433 34.4417L18.558 37.5667C18.6752 37.6839 18.8341 37.7497 18.9999 37.7497C19.1656 37.7497 19.3245 37.6839 19.4417 37.5667L22.5667 34.4417C22.6541 34.3543 22.7136 34.243 22.7377 34.1218C22.7618 34.0005 22.7495 33.8749 22.7022 33.7607C22.6549 33.6465 22.5748 33.5489 22.472 33.4802C22.3693 33.4116 22.2485 33.3749 22.1249 33.3749ZM18.9999 36.2411L17.3836 34.6249H17.7499C17.9156 34.6249 18.0746 34.559 18.1918 34.4418C18.309 34.3246 18.3749 34.1656 18.3749 33.9999V31.4999H19.6249V33.9999C19.6249 34.1656 19.6907 34.3246 19.8079 34.4418C19.9251 34.559 20.0841 34.6249 20.2499 34.6249H20.6161L18.9999 36.2411ZM34.4417 15.433C34.3543 15.3456 34.243 15.2861 34.1218 15.262C34.0005 15.2379 33.8749 15.2503 33.7607 15.2976C33.6465 15.3449 33.5489 15.4249 33.4802 15.5277C33.4116 15.6305 33.3749 15.7513 33.3749 15.8749V17.1249H30.8749C30.7091 17.1249 30.5501 17.1907 30.4329 17.3079C30.3157 17.4251 30.2499 17.5841 30.2499 17.7499V20.2499C30.2499 20.4156 30.3157 20.5746 30.4329 20.6918C30.5501 20.809 30.7091 20.8749 30.8749 20.8749H33.3749V22.1249C33.3748 22.2485 33.4115 22.3693 33.4801 22.4721C33.5487 22.5749 33.6463 22.655 33.7605 22.7024C33.8363 22.734 33.9177 22.7501 33.9999 22.7499C34.1656 22.7498 34.3246 22.684 34.4417 22.5667L37.5667 19.4417C37.6839 19.3245 37.7497 19.1656 37.7497 18.9999C37.7497 18.8341 37.6839 18.6752 37.5667 18.558L34.4417 15.433ZM34.6249 20.6161V20.2499C34.6249 20.0841 34.559 19.9251 34.4418 19.8079C34.3246 19.6907 34.1656 19.6249 33.9999 19.6249H31.4999V18.3749H33.9999C34.1656 18.3749 34.3246 18.309 34.4418 18.1918C34.559 18.0746 34.6249 17.9156 34.6249 17.7499V17.3836L36.2411 18.9999L34.6249 20.6161ZM7.74987 20.2499V17.7499C7.74987 17.5841 7.68402 17.4251 7.56681 17.3079C7.4496 17.1907 7.29063 17.1249 7.12487 17.1249H4.62487V15.8749C4.62484 15.7513 4.58817 15.6305 4.51949 15.5277C4.45081 15.4249 4.35321 15.3449 4.23903 15.2976C4.12484 15.2503 3.99919 15.2379 3.87797 15.262C3.75675 15.2861 3.6454 15.3456 3.55799 15.433L0.432991 18.558C0.315822 18.6752 0.25 18.8341 0.25 18.9999C0.25 19.1656 0.315822 19.3245 0.432991 19.4417L3.55799 22.5667C3.67517 22.684 3.83412 22.7498 3.99987 22.7499C4.08203 22.7501 4.16341 22.734 4.23924 22.7024C4.35342 22.655 4.451 22.5749 4.51964 22.4721C4.58828 22.3693 4.6249 22.2485 4.62487 22.1249V20.8749H7.12487C7.29063 20.8749 7.4496 20.809 7.56681 20.6918C7.68402 20.5746 7.74987 20.4156 7.74987 20.2499ZM6.49987 19.6249H3.99987C3.83411 19.6249 3.67514 19.6907 3.55792 19.8079C3.44071 19.9251 3.37487 20.0841 3.37487 20.2499V20.6161L1.75862 18.9999L3.37487 17.3836V17.7499C3.37487 17.9156 3.44071 18.0746 3.55792 18.1918C3.67514 18.309 3.83411 18.3749 3.99987 18.3749H6.49987V19.6249ZM25.888 9.71862C25.8879 9.88427 25.9535 10.0432 26.0705 10.1605L27.8392 11.9292C27.9564 12.0464 28.1154 12.1122 28.2811 12.1122C28.4468 12.1122 28.6058 12.0464 28.723 11.9292L30.4905 10.1605L31.3749 11.0449C31.4623 11.1322 31.5736 11.1918 31.6948 11.2159C31.8161 11.24 31.9417 11.2276 32.0559 11.1803C32.1701 11.133 32.2677 11.0529 32.3364 10.9502C32.405 10.8474 32.4417 10.7266 32.4417 10.603V6.18362C32.4417 6.01786 32.3759 5.85888 32.2587 5.74167C32.1415 5.62446 31.9825 5.55862 31.8167 5.55862H27.3967C27.2731 5.55864 27.1523 5.59531 27.0496 5.66399C26.9468 5.73267 26.8667 5.83027 26.8194 5.94446C26.7721 6.05864 26.7598 6.18429 26.7839 6.30551C26.808 6.42673 26.8675 6.53808 26.9549 6.62549L27.8392 7.50924L26.0705 9.27674C25.9535 9.39403 25.8879 9.55296 25.888 9.71862ZM29.1649 7.95112C29.282 7.83391 29.3479 7.67497 29.3479 7.50924C29.3479 7.34351 29.282 7.18457 29.1649 7.06737L28.9061 6.80862H31.1911V9.09362L30.9324 8.83487C30.8152 8.7177 30.6562 8.65187 30.4905 8.65187C30.3248 8.65187 30.1658 8.7177 30.0486 8.83487L28.2811 10.603L27.3967 9.71862L29.1649 7.95112ZM10.1605 26.0705C10.0411 25.9576 9.88297 25.8947 9.71862 25.8947C9.55427 25.8947 9.39616 25.9576 9.27674 26.0705L7.50924 27.8392L6.62487 26.9549C6.53746 26.8675 6.42611 26.808 6.30489 26.7839C6.18367 26.7598 6.05802 26.7721 5.94383 26.8194C5.82965 26.8667 5.73204 26.9468 5.66337 27.0496C5.59469 27.1523 5.55802 27.2731 5.55799 27.3967V31.8161C5.55799 31.9819 5.62384 32.1408 5.74105 32.2581C5.85826 32.3753 6.01723 32.4411 6.18299 32.4411H10.6024C10.726 32.4411 10.8468 32.4044 10.9495 32.3357C11.0523 32.2671 11.1324 32.1695 11.1797 32.0553C11.227 31.9411 11.2393 31.8154 11.2152 31.6942C11.1911 31.573 11.1316 31.4616 11.0442 31.3742L10.1599 30.4905L11.9286 28.723C12.0458 28.6058 12.1116 28.4468 12.1116 28.2811C12.1116 28.1154 12.0458 27.9564 11.9286 27.8392L10.1605 26.0705ZM8.83487 30.0486C8.7177 30.1658 8.65187 30.3248 8.65187 30.4905C8.65187 30.6562 8.7177 30.8152 8.83487 30.9324L9.09362 31.1911H6.80862V28.9061L7.06737 29.1649C7.18457 29.282 7.34351 29.3479 7.50924 29.3479C7.67497 29.3479 7.83391 29.282 7.95112 29.1649L9.71862 27.3967L10.603 28.2811L8.83487 30.0486ZM32.0555 26.8192C31.9413 26.7719 31.8156 26.7596 31.6943 26.7837C31.573 26.8078 31.4616 26.8674 31.3742 26.9549L30.4905 27.8392L28.723 26.0705C28.6058 25.9533 28.4468 25.8875 28.2811 25.8875C28.1154 25.8875 27.9564 25.9533 27.8392 26.0705L26.0705 27.8392C25.9533 27.9564 25.8875 28.1154 25.8875 28.2811C25.8875 28.4468 25.9533 28.6058 26.0705 28.723L27.8392 30.4905L26.9549 31.3749C26.8675 31.4623 26.808 31.5736 26.7839 31.6948C26.7598 31.8161 26.7721 31.9417 26.8194 32.0559C26.8667 32.1701 26.9468 32.2677 27.0496 32.3364C27.1523 32.405 27.2731 32.4417 27.3967 32.4417H31.8161C31.9819 32.4417 32.1408 32.3759 32.2581 32.2587C32.3753 32.1415 32.4411 31.9825 32.4411 31.8167V27.3967C32.4411 27.2731 32.4045 27.1523 32.3359 27.0495C32.2673 26.9467 32.1697 26.8666 32.0555 26.8192ZM31.1911 31.1911H28.9061L29.1649 30.9324C29.282 30.8152 29.3479 30.6562 29.3479 30.4905C29.3479 30.3248 29.282 30.1658 29.1649 30.0486L27.3967 28.2811L28.2811 27.3967L30.0486 29.1649C30.168 29.2778 30.3261 29.3407 30.4905 29.3407C30.6548 29.3407 30.813 29.2778 30.9324 29.1649L31.1911 28.9061V31.1911ZM11.1805 5.94424C11.1332 5.83006 11.053 5.73248 10.9502 5.66384C10.8474 5.5952 10.7266 5.55859 10.603 5.55862H6.18362C6.01786 5.55862 5.85888 5.62446 5.74167 5.74167C5.62446 5.85888 5.55862 6.01786 5.55862 6.18362V10.603C5.55864 10.7266 5.59531 10.8474 5.66399 10.9502C5.73267 11.0529 5.83027 11.133 5.94446 11.1803C6.05864 11.2276 6.18429 11.24 6.30551 11.2159C6.42673 11.1918 6.53808 11.1322 6.62549 11.0449L7.50924 10.1605L9.27674 11.9292C9.39395 12.0464 9.55289 12.1122 9.71862 12.1122C9.88434 12.1122 10.0433 12.0464 10.1605 11.9292L11.9292 10.1605C12.0464 10.0433 12.1122 9.88434 12.1122 9.71862C12.1122 9.55289 12.0464 9.39395 11.9292 9.27674L10.1605 7.50924L11.0449 6.62487C11.1322 6.53752 11.1917 6.42625 11.2158 6.30511C11.24 6.18397 11.2277 6.0584 11.1805 5.94424ZM10.603 9.71862L9.71862 10.603L7.95112 8.83487C7.83391 8.7177 7.67497 8.65187 7.50924 8.65187C7.34351 8.65187 7.18457 8.7177 7.06737 8.83487L6.80862 9.09362V6.80862H9.09362L8.83487 7.06737C8.7177 7.18457 8.65187 7.34351 8.65187 7.50924C8.65187 7.67497 8.7177 7.83391 8.83487 7.95112L10.603 9.71862Z" fill="#6A47ED"/>
</svg>
