<svg width="80" height="80" viewBox="0 0 80 80" fill="none" xmlns="http://www.w3.org/2000/svg">
<path d="M40.1533 6.25004C39.2892 6.24379 38.5845 6.9391 38.5783 7.8016C38.572 8.6641 39.2658 9.36879 40.1298 9.37504C40.9923 9.38129 41.697 8.68754 41.7033 7.82504C41.7095 6.96254 41.0158 6.25785 40.1533 6.25004ZM40.0822 15.6249C34.0492 15.5821 29.1084 20.4491 29.0628 26.4802C29.0173 32.511 33.887 37.4541 39.9181 37.4996L40.0019 37.4999C45.9945 37.4999 50.8922 32.6474 50.9375 26.6443C50.983 20.6138 46.1134 15.6704 40.0822 15.6249ZM40.0016 34.375L39.9416 34.3747C35.6336 34.3422 32.1552 30.8113 32.1877 26.5036C32.22 22.2154 35.7181 18.7494 39.9988 18.7494L40.0588 18.7497C44.3667 18.7822 47.8452 22.3132 47.8127 26.6208C47.7802 30.9091 44.2822 34.375 40.0016 34.375ZM46.8175 7.43504C46.0047 7.1466 45.1111 7.57239 44.8227 8.38582C44.5344 9.19926 44.9602 10.0922 45.7734 10.3807C52.6558 12.8199 57.2425 19.3747 57.1875 26.6914C57.1811 27.5543 57.8753 28.2591 58.7383 28.2657H58.7503C59.6075 28.2657 60.3059 27.5738 60.3125 26.7149C60.3775 18.0669 54.9542 10.3189 46.8175 7.43504Z" fill="#7444FD"/>
<path d="M49.5876 58.8191C59.9803 45.4417 66.4751 38.4659 66.5628 26.7622C66.6728 12.0367 54.7225 0 39.9981 0C25.4456 0 13.549 11.7856 13.4384 26.3637C13.349 38.3848 19.9645 45.3511 30.4289 58.8169C20.0187 60.3725 13.4384 64.2814 13.4384 69.0625C13.4384 72.2652 16.3987 75.1391 21.7742 77.1547C26.6668 78.9894 33.1398 79.9998 40.0006 79.9998C46.8614 79.9998 53.3343 78.9894 58.227 77.1547C63.6025 75.1389 66.5628 72.265 66.5628 69.0623C66.5628 64.2839 59.9885 60.3759 49.5876 58.8191ZM16.5632 26.3873C16.6607 13.5234 27.1568 3.125 39.9984 3.125C52.992 3.125 63.5348 13.7481 63.4379 26.7389C63.3548 37.8536 56.467 44.7031 45.4706 59.038C43.5092 61.5936 41.7079 64.0098 40.0029 66.3734C38.3029 64.0084 36.5376 61.6355 34.5468 59.037C23.0959 44.102 16.4786 37.7702 16.5632 26.3873ZM40.0006 76.875C26.5864 76.875 16.5632 72.7505 16.5632 69.0625C16.5632 66.3275 22.5551 62.8725 32.6298 61.6761C34.8568 64.5981 36.8093 67.2528 38.7243 69.9641C38.8685 70.1682 39.0595 70.3347 39.2813 70.4497C39.5031 70.5647 39.7493 70.6248 39.9992 70.625H40.0006C40.2502 70.625 40.4963 70.5652 40.718 70.4505C40.9398 70.3359 41.1309 70.1698 41.2753 69.9661C43.1721 67.2902 45.1781 64.57 47.3861 61.6778C57.4514 62.8755 63.4379 66.3294 63.4379 69.0627C63.4378 72.7505 53.4148 76.875 40.0006 76.875Z" fill="#7444FD"/>
</svg>
