<svg width="12" height="12" viewBox="0 0 12 12" fill="none" xmlns="http://www.w3.org/2000/svg">
<path d="M0.164202 6.00029C0.163239 5.83477 0.211591 5.67271 0.303092 5.53478C0.394592 5.39685 0.525097 5.28929 0.677967 5.22581C0.830836 5.16234 0.999146 5.14583 1.16144 5.17839C1.32372 5.21095 1.47264 5.2911 1.5892 5.40862L5.99754 9.82529L10.4059 5.40862C10.5653 5.2721 10.7704 5.20076 10.9801 5.20886C11.1898 5.21696 11.3888 5.30391 11.5372 5.45232C11.6856 5.60073 11.7725 5.79968 11.7806 6.00941C11.7887 6.21914 11.7174 6.4242 11.5809 6.58362L6.58087 11.5836C6.42473 11.7388 6.21352 11.826 5.99337 11.826C5.77321 11.826 5.562 11.7388 5.40587 11.5836L0.405869 6.58362C0.251916 6.42841 0.165122 6.21891 0.164202 6.00029Z" fill="#6A47ED"/>
<path d="M0.16586 1.00029C0.164898 0.834769 0.213249 0.672711 0.30475 0.534778C0.396251 0.396845 0.526755 0.289286 0.679626 0.225813C0.832495 0.162341 1.0008 0.145832 1.16309 0.17839C1.32538 0.210948 1.4743 0.291098 1.59086 0.408623L5.99919 4.82529L10.4075 0.408623C10.5644 0.251703 10.7773 0.163546 10.9992 0.163546C11.2211 0.163546 11.4339 0.251703 11.5909 0.408623C11.7478 0.565542 11.8359 0.778371 11.8359 1.00029C11.8359 1.22221 11.7478 1.43504 11.5909 1.59196L6.59086 6.59196C6.43473 6.74717 6.22352 6.83428 6.00336 6.83428C5.78321 6.83428 5.572 6.74717 5.41586 6.59196L0.415859 1.59196C0.337119 1.51478 0.274479 1.42274 0.231565 1.32118C0.188651 1.21961 0.166318 1.11055 0.16586 1.00029Z" fill="#6A47ED"/>
</svg>
