<svg width="44" height="44" viewBox="0 0 44 44" fill="none" xmlns="http://www.w3.org/2000/svg">
<path fill-rule="evenodd" clip-rule="evenodd" d="M1.78345 26.3066C4.16195 28.6845 8.01842 28.6845 10.3969 26.3066C12.7748 23.9286 12.7748 20.0715 10.3969 17.6935C8.01842 15.3156 4.16195 15.3156 1.78345 17.6935C-0.594482 20.0715 -0.594482 23.9286 1.78345 26.3066ZM26.3063 33.6036C23.9283 31.2257 20.0712 31.2257 17.6933 33.6036C15.3159 35.9816 15.3159 39.8385 17.6933 42.2165C20.0718 44.5945 23.9283 44.5945 26.3068 42.2165C28.6847 39.838 28.6847 35.9816 26.3063 33.6036ZM33.6031 17.6935C31.2251 20.0715 31.2251 23.9286 33.6031 26.3066C35.9816 28.6845 39.8382 28.6845 42.216 26.3066C44.5947 23.9286 44.5947 20.0715 42.216 17.6935C39.8387 15.3156 35.9816 15.3156 33.6031 17.6935ZM17.6933 1.78354C15.3159 4.16149 15.3159 8.01801 17.6933 10.3965C20.0718 12.7745 23.9283 12.7745 26.3068 10.3965C28.6781 8.02414 28.6847 4.18042 26.3246 1.80136C26.3184 1.79524 26.3129 1.7891 26.3063 1.78298C23.9283 -0.594421 20.0712 -0.594417 17.6933 1.78354ZM10.3969 1.78354C9.62951 1.01669 8.70951 0.496557 7.73385 0.22479C7.71993 0.220892 7.70488 0.216979 7.69042 0.213081C7.18976 0.0783123 6.66349 0.00535883 6.12108 0.004244H6.10716C2.75355 0.004244 0.033693 2.72414 0.0258966 6.08112C0.0258966 6.08557 0.0258966 6.09002 0.0258966 6.09504C0.0258966 8.89623 1.91488 11.2564 4.48661 11.9664C5.0023 12.109 5.54582 12.1853 6.10716 12.1853C7.2059 12.1853 8.21389 12.2811 9.13053 12.4715C12.6974 13.2128 14.8777 15.3908 15.6228 18.9583C15.791 19.7635 15.8856 20.6395 15.9074 21.5851C15.8984 21.7171 15.8946 21.8508 15.8946 21.985C15.8946 23.0943 15.7971 24.1112 15.6039 25.0353C14.8582 28.5926 12.683 30.7679 9.12608 31.5136C8.2022 31.7074 7.18531 31.8043 6.07542 31.8043C4.49496 31.8043 3.04815 32.4164 1.96221 33.4153C1.90485 33.4788 1.84471 33.5418 1.78345 33.6029C-0.492571 35.879 -0.590028 39.51 1.49108 41.9023C1.58464 42.0099 1.68209 42.1147 1.78345 42.216C2.77694 43.2028 4.10848 43.8495 5.58925 43.9664L6.32101 43.9797C9.56993 43.8509 12.1662 41.1751 12.1662 37.8944C12.1662 37.7747 12.1673 37.6551 12.1695 37.5369C12.1879 36.5729 12.2831 35.6818 12.4529 34.8633C13.1958 31.288 15.3789 29.1055 18.9541 28.362C19.7577 28.1949 20.6326 28.1009 21.5771 28.0802C21.5581 28.0787 21.5387 28.0774 21.5192 28.0752L21.6083 28.0769L21.6339 28.0792L21.6651 28.0787C21.7659 28.0769 21.8672 28.0757 21.9697 28.0757L21.6684 28.0787L21.9987 28.0846H22.0009L22.3935 28.0774L22.4787 28.0757C22.403 28.0819 22.3267 28.0863 22.2509 28.0891L22.1646 28.0876C22.1134 28.0891 22.0621 28.0898 22.0115 28.0903C23.113 28.0903 24.1232 28.186 25.0414 28.3783C28.6066 29.1211 30.7846 31.3008 31.5282 34.87C31.7202 35.791 31.8166 36.8045 31.8166 37.9095C31.8166 39.5417 32.4576 41.0243 33.5017 42.1174C33.5364 42.1498 33.5702 42.1827 33.6038 42.216C34.7276 43.3393 36.181 43.9323 37.6528 43.9948C37.6545 43.9941 37.6568 43.9948 37.6585 43.9948L38.3835 43.9815C39.8615 43.8638 41.1914 43.2174 42.1826 42.2311C43.3293 41.0826 43.9792 39.5367 43.9792 37.9095C43.9792 34.6048 41.3073 31.8876 38.0221 31.8204C37.9803 31.8192 37.9391 31.8192 37.8973 31.8192C36.7963 31.8192 35.7868 31.7235 34.869 31.5319C31.3032 30.7889 29.1252 28.6087 28.3812 25.0397C28.1985 24.163 28.1029 23.203 28.0937 22.1599C28.0949 22.1081 28.0954 22.0563 28.0954 22.004C28.0954 20.8974 28.1918 19.8821 28.3856 18.9605C29.1302 15.3975 31.3077 13.2194 34.8707 12.4743C35.7934 12.2816 36.8082 12.1847 37.9146 12.1847C39.5268 12.1847 40.9926 11.5582 42.082 10.5352C42.126 10.4884 42.1705 10.4422 42.216 10.3965C44.5947 8.01801 44.5947 4.16094 42.216 1.78354C42.2115 1.77852 42.2066 1.77407 42.2026 1.76962C42.191 1.75736 42.1794 1.74512 42.1665 1.73398C41.069 0.663621 39.5686 0.004244 37.9146 0.004244H37.9008C34.5437 0.0120404 31.8246 2.73638 31.8246 6.09447C31.8246 6.16297 31.8238 6.23203 31.8233 6.29998C31.8122 7.32466 31.7165 8.26918 31.5366 9.13237C30.7925 12.7015 28.6118 14.8818 25.0426 15.6258C24.2362 15.7934 23.3591 15.8881 22.4113 15.9093C22.3456 15.9109 22.2799 15.912 22.2142 15.9126C22.2091 15.9126 22.2047 15.9126 22.1997 15.912C22.1418 15.9109 22.0839 15.9093 22.0254 15.9093C22.0209 15.9093 22.0165 15.9093 22.0115 15.9093C21.9719 15.9093 21.9318 15.9098 21.8923 15.9109C21.8633 15.9115 21.8333 15.912 21.8037 15.9131C21.8026 15.9131 21.8015 15.9131 21.8004 15.9131C21.7219 15.9126 21.6439 15.9109 21.5659 15.9093C20.6276 15.8875 19.7577 15.7923 18.958 15.6252C15.3945 14.8801 13.2181 12.6993 12.4758 9.12847C12.2848 8.20847 12.1884 7.19714 12.1884 6.09447C12.1884 4.46387 11.5491 2.9831 10.506 1.88991C10.4693 1.85538 10.4331 1.81973 10.3969 1.78354Z" fill="#6A47ED"/>
</svg>
